<mxfile host="Electron" modified="2023-07-27T18:41:02.791Z" agent="Mozilla/5.0 (Windows NT 10.0; Win64; x64) AppleWebKit/537.36 (KHTML, like Gecko) draw.io/21.6.5 Chrome/114.0.5735.243 Electron/25.3.1 Safari/537.36" etag="sFVPrDB12Bbr1dxYo8rG" version="21.6.5" type="device">
  <diagram name="Página-1" id="6o0FrQawSAbtWh6LcLKZ">
    <mxGraphModel dx="1036" dy="614" grid="1" gridSize="10" guides="1" tooltips="1" connect="1" arrows="1" fold="1" page="0" pageScale="1" pageWidth="827" pageHeight="1169" math="0" shadow="0">
      <root>
        <mxCell id="0" />
        <mxCell id="1" parent="0" />
        <mxCell id="FAf59wAgUtgn6LaUTD2F-12" style="edgeStyle=orthogonalEdgeStyle;rounded=0;orthogonalLoop=1;jettySize=auto;html=1;entryX=0;entryY=0.5;entryDx=0;entryDy=0;endArrow=none;endFill=0;exitX=0.5;exitY=0;exitDx=0;exitDy=0;" parent="1" source="FAf59wAgUtgn6LaUTD2F-1" target="FAf59wAgUtgn6LaUTD2F-4" edge="1">
          <mxGeometry relative="1" as="geometry" />
        </mxCell>
        <mxCell id="FAf59wAgUtgn6LaUTD2F-18" style="edgeStyle=orthogonalEdgeStyle;rounded=0;orthogonalLoop=1;jettySize=auto;html=1;endArrow=none;endFill=0;" parent="1" source="FAf59wAgUtgn6LaUTD2F-1" target="FAf59wAgUtgn6LaUTD2F-11" edge="1">
          <mxGeometry relative="1" as="geometry" />
        </mxCell>
        <mxCell id="FAf59wAgUtgn6LaUTD2F-19" style="edgeStyle=orthogonalEdgeStyle;rounded=0;orthogonalLoop=1;jettySize=auto;html=1;exitX=0.5;exitY=1;exitDx=0;exitDy=0;entryX=0.5;entryY=0;entryDx=0;entryDy=0;endArrow=none;endFill=0;" parent="1" source="FAf59wAgUtgn6LaUTD2F-1" target="FAf59wAgUtgn6LaUTD2F-8" edge="1">
          <mxGeometry relative="1" as="geometry" />
        </mxCell>
        <mxCell id="FAf59wAgUtgn6LaUTD2F-1" value="&lt;font style=&quot;font-size: 14px;&quot;&gt;Pessoa&lt;/font&gt;" style="rounded=0;whiteSpace=wrap;html=1;" parent="1" vertex="1">
          <mxGeometry x="120" y="320" width="120" height="60" as="geometry" />
        </mxCell>
        <mxCell id="FAf59wAgUtgn6LaUTD2F-2" value="Construa a modelagem que represente pessoas e seus dados, observando que:&#xa;&#xa;&#xa;- uma pessoa pode ter vários telefones e vários emails, porém, pode possuir somente uma CNH." style="text;whiteSpace=wrap;fontSize=14;" parent="1" vertex="1">
          <mxGeometry x="30" y="30" width="560" height="80" as="geometry" />
        </mxCell>
        <mxCell id="FAf59wAgUtgn6LaUTD2F-13" style="edgeStyle=orthogonalEdgeStyle;rounded=0;orthogonalLoop=1;jettySize=auto;html=1;exitX=1;exitY=0.5;exitDx=0;exitDy=0;endArrow=none;endFill=0;" parent="1" source="FAf59wAgUtgn6LaUTD2F-4" target="FAf59wAgUtgn6LaUTD2F-5" edge="1">
          <mxGeometry relative="1" as="geometry" />
        </mxCell>
        <mxCell id="FAf59wAgUtgn6LaUTD2F-4" value="&lt;font style=&quot;font-size: 14px;&quot;&gt;Possui&lt;/font&gt;" style="rhombus;whiteSpace=wrap;html=1;" parent="1" vertex="1">
          <mxGeometry x="340" y="260" width="80" height="80" as="geometry" />
        </mxCell>
        <mxCell id="FAf59wAgUtgn6LaUTD2F-5" value="&lt;font style=&quot;font-size: 14px;&quot;&gt;Telefone&lt;/font&gt;" style="rounded=0;whiteSpace=wrap;html=1;" parent="1" vertex="1">
          <mxGeometry x="510" y="270" width="120" height="60" as="geometry" />
        </mxCell>
        <mxCell id="FAf59wAgUtgn6LaUTD2F-8" value="&lt;font style=&quot;font-size: 14px;&quot;&gt;CNH&lt;/font&gt;" style="ellipse;whiteSpace=wrap;html=1;" parent="1" vertex="1">
          <mxGeometry x="200" y="430" width="120" height="40" as="geometry" />
        </mxCell>
        <mxCell id="FAf59wAgUtgn6LaUTD2F-11" value="&lt;font style=&quot;font-size: 14px;&quot;&gt;Nome&lt;/font&gt;" style="ellipse;whiteSpace=wrap;html=1;" parent="1" vertex="1">
          <mxGeometry x="50" y="430" width="120" height="40" as="geometry" />
        </mxCell>
        <mxCell id="FAf59wAgUtgn6LaUTD2F-14" value="&lt;font style=&quot;font-size: 14px;&quot;&gt;N&lt;/font&gt;" style="text;html=1;align=center;verticalAlign=middle;resizable=0;points=[];autosize=1;strokeColor=none;fillColor=none;" parent="1" vertex="1">
          <mxGeometry x="480" y="270" width="30" height="30" as="geometry" />
        </mxCell>
        <mxCell id="FAf59wAgUtgn6LaUTD2F-15" value="&lt;font style=&quot;font-size: 14px;&quot;&gt;1&lt;/font&gt;" style="text;html=1;align=center;verticalAlign=middle;resizable=0;points=[];autosize=1;strokeColor=none;fillColor=none;" parent="1" vertex="1">
          <mxGeometry x="180" y="270" width="30" height="30" as="geometry" />
        </mxCell>
        <mxCell id="u8eTA93K5nobnBVLgjME-2" style="edgeStyle=orthogonalEdgeStyle;rounded=0;orthogonalLoop=1;jettySize=auto;html=1;exitX=1;exitY=0.5;exitDx=0;exitDy=0;endArrow=none;endFill=0;" parent="1" source="u8eTA93K5nobnBVLgjME-3" target="u8eTA93K5nobnBVLgjME-4" edge="1">
          <mxGeometry relative="1" as="geometry" />
        </mxCell>
        <mxCell id="u8eTA93K5nobnBVLgjME-6" style="edgeStyle=orthogonalEdgeStyle;rounded=0;orthogonalLoop=1;jettySize=auto;html=1;entryX=1;entryY=0.5;entryDx=0;entryDy=0;endArrow=none;endFill=0;" parent="1" source="u8eTA93K5nobnBVLgjME-3" target="FAf59wAgUtgn6LaUTD2F-1" edge="1">
          <mxGeometry relative="1" as="geometry" />
        </mxCell>
        <mxCell id="u8eTA93K5nobnBVLgjME-3" value="&lt;font style=&quot;font-size: 14px;&quot;&gt;Possui&lt;/font&gt;" style="rhombus;whiteSpace=wrap;html=1;" parent="1" vertex="1">
          <mxGeometry x="340" y="360" width="80" height="80" as="geometry" />
        </mxCell>
        <mxCell id="u8eTA93K5nobnBVLgjME-4" value="&lt;font style=&quot;font-size: 14px;&quot;&gt;Email&lt;/font&gt;" style="rounded=0;whiteSpace=wrap;html=1;" parent="1" vertex="1">
          <mxGeometry x="510" y="370" width="120" height="60" as="geometry" />
        </mxCell>
        <mxCell id="u8eTA93K5nobnBVLgjME-5" value="&lt;font style=&quot;font-size: 14px;&quot;&gt;N&lt;/font&gt;" style="text;html=1;align=center;verticalAlign=middle;resizable=0;points=[];autosize=1;strokeColor=none;fillColor=none;" parent="1" vertex="1">
          <mxGeometry x="480" y="370" width="30" height="30" as="geometry" />
        </mxCell>
        <mxCell id="u8eTA93K5nobnBVLgjME-7" value="&lt;font style=&quot;font-size: 14px;&quot;&gt;1&lt;/font&gt;" style="text;html=1;align=center;verticalAlign=middle;resizable=0;points=[];autosize=1;strokeColor=none;fillColor=none;" parent="1" vertex="1">
          <mxGeometry x="240" y="350" width="30" height="30" as="geometry" />
        </mxCell>
        <mxCell id="o68t6UrzeyRqWO2HSwae-5" style="edgeStyle=orthogonalEdgeStyle;rounded=0;orthogonalLoop=1;jettySize=auto;html=1;exitX=0;exitY=0.5;exitDx=0;exitDy=0;endArrow=none;endFill=0;" parent="1" source="o68t6UrzeyRqWO2HSwae-2" target="FAf59wAgUtgn6LaUTD2F-5" edge="1">
          <mxGeometry relative="1" as="geometry" />
        </mxCell>
        <mxCell id="o68t6UrzeyRqWO2HSwae-2" value="&lt;font style=&quot;font-size: 14px;&quot;&gt;Número&lt;/font&gt;" style="ellipse;whiteSpace=wrap;html=1;" parent="1" vertex="1">
          <mxGeometry x="670" y="280" width="120" height="40" as="geometry" />
        </mxCell>
        <mxCell id="o68t6UrzeyRqWO2HSwae-4" style="edgeStyle=orthogonalEdgeStyle;rounded=0;orthogonalLoop=1;jettySize=auto;html=1;exitX=0;exitY=0.5;exitDx=0;exitDy=0;entryX=1;entryY=0.5;entryDx=0;entryDy=0;endArrow=none;endFill=0;" parent="1" source="o68t6UrzeyRqWO2HSwae-3" target="u8eTA93K5nobnBVLgjME-4" edge="1">
          <mxGeometry relative="1" as="geometry" />
        </mxCell>
        <mxCell id="o68t6UrzeyRqWO2HSwae-3" value="&lt;font style=&quot;font-size: 14px;&quot;&gt;Endereço&lt;/font&gt;" style="ellipse;whiteSpace=wrap;html=1;" parent="1" vertex="1">
          <mxGeometry x="670" y="380" width="120" height="40" as="geometry" />
        </mxCell>
        <mxCell id="o68t6UrzeyRqWO2HSwae-6" value="&lt;font style=&quot;font-size: 14px;&quot;&gt;Conceitual&lt;/font&gt;" style="text;html=1;align=center;verticalAlign=middle;resizable=0;points=[];autosize=1;strokeColor=#b85450;fillColor=#f8cecc;" parent="1" vertex="1">
          <mxGeometry x="335" y="188" width="90" height="30" as="geometry" />
        </mxCell>
        <mxCell id="o68t6UrzeyRqWO2HSwae-7" value="&lt;font style=&quot;font-size: 14px;&quot;&gt;Lógico&lt;/font&gt;" style="text;html=1;align=center;verticalAlign=middle;resizable=0;points=[];autosize=1;strokeColor=#b85450;fillColor=#f8cecc;" parent="1" vertex="1">
          <mxGeometry x="1175" y="200" width="60" height="30" as="geometry" />
        </mxCell>
        <mxCell id="o68t6UrzeyRqWO2HSwae-73" value="Pessoa" style="shape=table;startSize=30;container=1;collapsible=1;childLayout=tableLayout;fixedRows=1;rowLines=0;fontStyle=1;align=center;resizeLast=1;html=1;" parent="1" vertex="1">
          <mxGeometry x="990" y="260" width="180" height="120" as="geometry" />
        </mxCell>
        <mxCell id="o68t6UrzeyRqWO2HSwae-74" value="" style="shape=tableRow;horizontal=0;startSize=0;swimlaneHead=0;swimlaneBody=0;fillColor=none;collapsible=0;dropTarget=0;points=[[0,0.5],[1,0.5]];portConstraint=eastwest;top=0;left=0;right=0;bottom=1;" parent="o68t6UrzeyRqWO2HSwae-73" vertex="1">
          <mxGeometry y="30" width="180" height="30" as="geometry" />
        </mxCell>
        <mxCell id="o68t6UrzeyRqWO2HSwae-75" value="PK" style="shape=partialRectangle;connectable=0;fillColor=none;top=0;left=0;bottom=0;right=0;fontStyle=1;overflow=hidden;whiteSpace=wrap;html=1;" parent="o68t6UrzeyRqWO2HSwae-74" vertex="1">
          <mxGeometry width="30" height="30" as="geometry">
            <mxRectangle width="30" height="30" as="alternateBounds" />
          </mxGeometry>
        </mxCell>
        <mxCell id="o68t6UrzeyRqWO2HSwae-76" value="IdPessoa" style="shape=partialRectangle;connectable=0;fillColor=none;top=0;left=0;bottom=0;right=0;align=left;spacingLeft=6;fontStyle=5;overflow=hidden;whiteSpace=wrap;html=1;" parent="o68t6UrzeyRqWO2HSwae-74" vertex="1">
          <mxGeometry x="30" width="150" height="30" as="geometry">
            <mxRectangle width="150" height="30" as="alternateBounds" />
          </mxGeometry>
        </mxCell>
        <mxCell id="o68t6UrzeyRqWO2HSwae-77" value="" style="shape=tableRow;horizontal=0;startSize=0;swimlaneHead=0;swimlaneBody=0;fillColor=none;collapsible=0;dropTarget=0;points=[[0,0.5],[1,0.5]];portConstraint=eastwest;top=0;left=0;right=0;bottom=0;" parent="o68t6UrzeyRqWO2HSwae-73" vertex="1">
          <mxGeometry y="60" width="180" height="30" as="geometry" />
        </mxCell>
        <mxCell id="o68t6UrzeyRqWO2HSwae-78" value="" style="shape=partialRectangle;connectable=0;fillColor=none;top=0;left=0;bottom=0;right=0;editable=1;overflow=hidden;whiteSpace=wrap;html=1;" parent="o68t6UrzeyRqWO2HSwae-77" vertex="1">
          <mxGeometry width="30" height="30" as="geometry">
            <mxRectangle width="30" height="30" as="alternateBounds" />
          </mxGeometry>
        </mxCell>
        <mxCell id="o68t6UrzeyRqWO2HSwae-79" value="NomePessoa" style="shape=partialRectangle;connectable=0;fillColor=none;top=0;left=0;bottom=0;right=0;align=left;spacingLeft=6;overflow=hidden;whiteSpace=wrap;html=1;" parent="o68t6UrzeyRqWO2HSwae-77" vertex="1">
          <mxGeometry x="30" width="150" height="30" as="geometry">
            <mxRectangle width="150" height="30" as="alternateBounds" />
          </mxGeometry>
        </mxCell>
        <mxCell id="o68t6UrzeyRqWO2HSwae-80" value="" style="shape=tableRow;horizontal=0;startSize=0;swimlaneHead=0;swimlaneBody=0;fillColor=none;collapsible=0;dropTarget=0;points=[[0,0.5],[1,0.5]];portConstraint=eastwest;top=0;left=0;right=0;bottom=0;" parent="o68t6UrzeyRqWO2HSwae-73" vertex="1">
          <mxGeometry y="90" width="180" height="30" as="geometry" />
        </mxCell>
        <mxCell id="o68t6UrzeyRqWO2HSwae-81" value="" style="shape=partialRectangle;connectable=0;fillColor=none;top=0;left=0;bottom=0;right=0;editable=1;overflow=hidden;whiteSpace=wrap;html=1;" parent="o68t6UrzeyRqWO2HSwae-80" vertex="1">
          <mxGeometry width="30" height="30" as="geometry">
            <mxRectangle width="30" height="30" as="alternateBounds" />
          </mxGeometry>
        </mxCell>
        <mxCell id="o68t6UrzeyRqWO2HSwae-82" value="CnhPessoa" style="shape=partialRectangle;connectable=0;fillColor=none;top=0;left=0;bottom=0;right=0;align=left;spacingLeft=6;overflow=hidden;whiteSpace=wrap;html=1;" parent="o68t6UrzeyRqWO2HSwae-80" vertex="1">
          <mxGeometry x="30" width="150" height="30" as="geometry">
            <mxRectangle width="150" height="30" as="alternateBounds" />
          </mxGeometry>
        </mxCell>
        <mxCell id="o68t6UrzeyRqWO2HSwae-86" value="Email" style="shape=table;startSize=30;container=1;collapsible=1;childLayout=tableLayout;fixedRows=1;rowLines=0;fontStyle=1;align=center;resizeLast=1;html=1;whiteSpace=wrap;" parent="1" vertex="1">
          <mxGeometry x="1235" y="260" width="180" height="120" as="geometry" />
        </mxCell>
        <mxCell id="o68t6UrzeyRqWO2HSwae-87" value="" style="shape=tableRow;horizontal=0;startSize=0;swimlaneHead=0;swimlaneBody=0;fillColor=none;collapsible=0;dropTarget=0;points=[[0,0.5],[1,0.5]];portConstraint=eastwest;top=0;left=0;right=0;bottom=0;html=1;" parent="o68t6UrzeyRqWO2HSwae-86" vertex="1">
          <mxGeometry y="30" width="180" height="30" as="geometry" />
        </mxCell>
        <mxCell id="o68t6UrzeyRqWO2HSwae-88" value="PK" style="shape=partialRectangle;connectable=0;fillColor=none;top=0;left=0;bottom=0;right=0;fontStyle=1;overflow=hidden;html=1;whiteSpace=wrap;" parent="o68t6UrzeyRqWO2HSwae-87" vertex="1">
          <mxGeometry width="60" height="30" as="geometry">
            <mxRectangle width="60" height="30" as="alternateBounds" />
          </mxGeometry>
        </mxCell>
        <mxCell id="o68t6UrzeyRqWO2HSwae-89" value="IdEmail" style="shape=partialRectangle;connectable=0;fillColor=none;top=0;left=0;bottom=0;right=0;align=left;spacingLeft=6;fontStyle=5;overflow=hidden;html=1;whiteSpace=wrap;" parent="o68t6UrzeyRqWO2HSwae-87" vertex="1">
          <mxGeometry x="60" width="120" height="30" as="geometry">
            <mxRectangle width="120" height="30" as="alternateBounds" />
          </mxGeometry>
        </mxCell>
        <mxCell id="o68t6UrzeyRqWO2HSwae-90" value="" style="shape=tableRow;horizontal=0;startSize=0;swimlaneHead=0;swimlaneBody=0;fillColor=none;collapsible=0;dropTarget=0;points=[[0,0.5],[1,0.5]];portConstraint=eastwest;top=0;left=0;right=0;bottom=1;html=1;" parent="o68t6UrzeyRqWO2HSwae-86" vertex="1">
          <mxGeometry y="60" width="180" height="30" as="geometry" />
        </mxCell>
        <mxCell id="o68t6UrzeyRqWO2HSwae-91" value="FK" style="shape=partialRectangle;connectable=0;fillColor=none;top=0;left=0;bottom=0;right=0;fontStyle=1;overflow=hidden;html=1;whiteSpace=wrap;" parent="o68t6UrzeyRqWO2HSwae-90" vertex="1">
          <mxGeometry width="60" height="30" as="geometry">
            <mxRectangle width="60" height="30" as="alternateBounds" />
          </mxGeometry>
        </mxCell>
        <mxCell id="o68t6UrzeyRqWO2HSwae-92" value="IdPessoa" style="shape=partialRectangle;connectable=0;fillColor=none;top=0;left=0;bottom=0;right=0;align=left;spacingLeft=6;fontStyle=5;overflow=hidden;html=1;whiteSpace=wrap;" parent="o68t6UrzeyRqWO2HSwae-90" vertex="1">
          <mxGeometry x="60" width="120" height="30" as="geometry">
            <mxRectangle width="120" height="30" as="alternateBounds" />
          </mxGeometry>
        </mxCell>
        <mxCell id="o68t6UrzeyRqWO2HSwae-93" value="" style="shape=tableRow;horizontal=0;startSize=0;swimlaneHead=0;swimlaneBody=0;fillColor=none;collapsible=0;dropTarget=0;points=[[0,0.5],[1,0.5]];portConstraint=eastwest;top=0;left=0;right=0;bottom=0;html=1;" parent="o68t6UrzeyRqWO2HSwae-86" vertex="1">
          <mxGeometry y="90" width="180" height="30" as="geometry" />
        </mxCell>
        <mxCell id="o68t6UrzeyRqWO2HSwae-94" value="" style="shape=partialRectangle;connectable=0;fillColor=none;top=0;left=0;bottom=0;right=0;editable=1;overflow=hidden;html=1;whiteSpace=wrap;" parent="o68t6UrzeyRqWO2HSwae-93" vertex="1">
          <mxGeometry width="60" height="30" as="geometry">
            <mxRectangle width="60" height="30" as="alternateBounds" />
          </mxGeometry>
        </mxCell>
        <mxCell id="o68t6UrzeyRqWO2HSwae-95" value="EnderecoEmail" style="shape=partialRectangle;connectable=0;fillColor=none;top=0;left=0;bottom=0;right=0;align=left;spacingLeft=6;overflow=hidden;html=1;whiteSpace=wrap;" parent="o68t6UrzeyRqWO2HSwae-93" vertex="1">
          <mxGeometry x="60" width="120" height="30" as="geometry">
            <mxRectangle width="120" height="30" as="alternateBounds" />
          </mxGeometry>
        </mxCell>
        <mxCell id="o68t6UrzeyRqWO2HSwae-99" value="Telefone" style="shape=table;startSize=30;container=1;collapsible=1;childLayout=tableLayout;fixedRows=1;rowLines=0;fontStyle=1;align=center;resizeLast=1;html=1;whiteSpace=wrap;" parent="1" vertex="1">
          <mxGeometry x="1235" y="410" width="180" height="120" as="geometry" />
        </mxCell>
        <mxCell id="o68t6UrzeyRqWO2HSwae-100" value="" style="shape=tableRow;horizontal=0;startSize=0;swimlaneHead=0;swimlaneBody=0;fillColor=none;collapsible=0;dropTarget=0;points=[[0,0.5],[1,0.5]];portConstraint=eastwest;top=0;left=0;right=0;bottom=0;html=1;" parent="o68t6UrzeyRqWO2HSwae-99" vertex="1">
          <mxGeometry y="30" width="180" height="30" as="geometry" />
        </mxCell>
        <mxCell id="o68t6UrzeyRqWO2HSwae-101" value="PK" style="shape=partialRectangle;connectable=0;fillColor=none;top=0;left=0;bottom=0;right=0;fontStyle=1;overflow=hidden;html=1;whiteSpace=wrap;" parent="o68t6UrzeyRqWO2HSwae-100" vertex="1">
          <mxGeometry width="60" height="30" as="geometry">
            <mxRectangle width="60" height="30" as="alternateBounds" />
          </mxGeometry>
        </mxCell>
        <mxCell id="o68t6UrzeyRqWO2HSwae-102" value="IdTelefone" style="shape=partialRectangle;connectable=0;fillColor=none;top=0;left=0;bottom=0;right=0;align=left;spacingLeft=6;fontStyle=5;overflow=hidden;html=1;whiteSpace=wrap;" parent="o68t6UrzeyRqWO2HSwae-100" vertex="1">
          <mxGeometry x="60" width="120" height="30" as="geometry">
            <mxRectangle width="120" height="30" as="alternateBounds" />
          </mxGeometry>
        </mxCell>
        <mxCell id="o68t6UrzeyRqWO2HSwae-103" value="" style="shape=tableRow;horizontal=0;startSize=0;swimlaneHead=0;swimlaneBody=0;fillColor=none;collapsible=0;dropTarget=0;points=[[0,0.5],[1,0.5]];portConstraint=eastwest;top=0;left=0;right=0;bottom=1;html=1;" parent="o68t6UrzeyRqWO2HSwae-99" vertex="1">
          <mxGeometry y="60" width="180" height="30" as="geometry" />
        </mxCell>
        <mxCell id="o68t6UrzeyRqWO2HSwae-104" value="FK" style="shape=partialRectangle;connectable=0;fillColor=none;top=0;left=0;bottom=0;right=0;fontStyle=1;overflow=hidden;html=1;whiteSpace=wrap;" parent="o68t6UrzeyRqWO2HSwae-103" vertex="1">
          <mxGeometry width="60" height="30" as="geometry">
            <mxRectangle width="60" height="30" as="alternateBounds" />
          </mxGeometry>
        </mxCell>
        <mxCell id="o68t6UrzeyRqWO2HSwae-105" value="IdPessoa" style="shape=partialRectangle;connectable=0;fillColor=none;top=0;left=0;bottom=0;right=0;align=left;spacingLeft=6;fontStyle=5;overflow=hidden;html=1;whiteSpace=wrap;" parent="o68t6UrzeyRqWO2HSwae-103" vertex="1">
          <mxGeometry x="60" width="120" height="30" as="geometry">
            <mxRectangle width="120" height="30" as="alternateBounds" />
          </mxGeometry>
        </mxCell>
        <mxCell id="o68t6UrzeyRqWO2HSwae-106" value="" style="shape=tableRow;horizontal=0;startSize=0;swimlaneHead=0;swimlaneBody=0;fillColor=none;collapsible=0;dropTarget=0;points=[[0,0.5],[1,0.5]];portConstraint=eastwest;top=0;left=0;right=0;bottom=0;html=1;" parent="o68t6UrzeyRqWO2HSwae-99" vertex="1">
          <mxGeometry y="90" width="180" height="30" as="geometry" />
        </mxCell>
        <mxCell id="o68t6UrzeyRqWO2HSwae-107" value="" style="shape=partialRectangle;connectable=0;fillColor=none;top=0;left=0;bottom=0;right=0;editable=1;overflow=hidden;html=1;whiteSpace=wrap;" parent="o68t6UrzeyRqWO2HSwae-106" vertex="1">
          <mxGeometry width="60" height="30" as="geometry">
            <mxRectangle width="60" height="30" as="alternateBounds" />
          </mxGeometry>
        </mxCell>
        <mxCell id="o68t6UrzeyRqWO2HSwae-108" value="NumeroTelefone" style="shape=partialRectangle;connectable=0;fillColor=none;top=0;left=0;bottom=0;right=0;align=left;spacingLeft=6;overflow=hidden;html=1;whiteSpace=wrap;" parent="o68t6UrzeyRqWO2HSwae-106" vertex="1">
          <mxGeometry x="60" width="120" height="30" as="geometry">
            <mxRectangle width="120" height="30" as="alternateBounds" />
          </mxGeometry>
        </mxCell>
        <mxCell id="o68t6UrzeyRqWO2HSwae-111" value="&lt;font style=&quot;font-size: 14px;&quot;&gt;Físico&lt;/font&gt;" style="text;html=1;align=center;verticalAlign=middle;resizable=0;points=[];autosize=1;strokeColor=#b85450;fillColor=#f8cecc;" parent="1" vertex="1">
          <mxGeometry x="670" y="520" width="60" height="30" as="geometry" />
        </mxCell>
        <mxCell id="o68t6UrzeyRqWO2HSwae-112" value="" style="shape=image;verticalLabelPosition=bottom;labelBackgroundColor=default;verticalAlign=top;aspect=fixed;imageAspect=0;image=data:image/png,iVBORw0KGgoAAAANSUhEUgAABgEAAADHCAYAAAAwEfNjAAAAAXNSR0IArs4c6QAAAARnQU1BAACxjwv8YQUAAAAJcEhZcwAADsMAAA7DAcdvqGQAAGRxSURBVHhe7d29axvJ/8Dxj39/hQ3JBcO1aVxFgmsM9wecjA8iV0fKdCFdnBSO3YV0KY9vZQUu2PkDDtwcWKncpD0wuQTs/0K/edrVzOzsg2TZlnbfL9jEkvZ5Zndm52nXJopU+O+//+Snn35yn9AVhHs3Ee5ogy7HY67hbiLcu4lwB+5H16897j3dRLjjLhDPgJupu4b+z/0PAAAAAAAAAABahkoAAAAAAAAAAABaikoAAAAAAAAAAABaikoAAAAAAAAAAABaikoAAAAAAAAAAABaikoAAAAAAAAAAABaau3bt28T93fSo0eP3F8AAKwGlba5v7qFNBsAgNvX1XyGRl4DAIDlVZVHWZso7u+ktbU1qZkFAICl0eV0izQbAIDb1fW0lrwGAADLqS6NZjggAAAAAAAAAABaikoAAAAAAAAAAABaikoAAAAAAAAAAABaikoAAAAAAAAAAABaikoAAAAAAAAAAABaikoAAAAAAAAAAABaikoAwPdjJDtra7JWMu18vHYzAgCAtrj+uJNM98PpSMZu/lJfjtR8OzL64T43ZZZz2/l9JOQ2AABAUk2ZhZne1uZYFmAsR2pbeRnJvHkgAHeGSgAgYTC6kslkEk7jQzkdbtxRggoAAO7K+tOTIM2/Gg3Ut4dy7n03mbySnp19wa5l9H5f5ODcbuevoay7XwAAAFKSZRbZ9Pp2ciyhnrxS2zp5Sq4FWBVUAgBNPXkl5wfq/zdn9S0BAQAAGrmUy0/qYf7nTfcZAAAAABaLSgBgBps/65aBF3LpdXErDCEQ9xRIdNc7+uJ+M65l9Hv4e6q3Qe12lOJwBnTHAwBgcWzX99nS2YplTNf5vuyrP01vQ/X7NI9Qs628230035x5CAAA0DKuLOLoSyqvEJVDFIYjjPMhagryD/Z3hkwGVgeVAMAMLv89Vf9uyeYD+3n8dk02hiLH37Oud+dy+KY/TRx1ovtwT8Tvqjc+lP1e9iCvE94N2ZNjucp+d+vwE9PS7XgJtX7A3xhuBUMXnB+cyt7DBmMYAwCAauZBui/72bA9aroaiUpnKyoC6pZ58kp9p9J09WfWrf/Vk6rl4oYEOp0/k203j85jSNM8BBUBAAB0wn7vnWxm+QCXV1hb25DLF17e4NOebOR5A13A35cLvxzj+7EMojwGgNVCJQDQ1Jcj6b/RD+nP7JjA6gH9nfn8QYauUsCMi+cSVfOQ/uNSPZ4PZOcXb5w888B/4pZxQwD8tu2N/xuNree2czjOltHcdlRC/acpDBjLn0O1pWzfnN4fKqGWfTkLCgwAAMCsxv/bU2n6oZx74+yuP/0gx7unsvci/TLfeZbRzHK7x3JVWE49yL8Plzsce+8qePLMzHP676X93CSvAgAAVk7Wg7A4FRsnBPmAJ9um8YF+F5FpeGD0ZFsPffz10uQxrj++k30110t/vP8HQ3mp5jn9fFaafwGw3KgEABKSCWpPJYPjaeH89T8nxQJ+zSWqF5cqaTR/61Z6avlkizub2NrtlbTYdxUJWe+DnL8d/UDvVRzoVn9mnx/qwgcAAHAzYzl7o/472J4WuBvrsv3bQOTTpbhid888y2jXcvlV/fd4M3pBcGq5RP7A0yivAgAAVk75i4H9xoPW1maUD6ix/vRErcc1MjC9E235gm4UCWB1UQkAJJQlqNOa8owr4M8qCsxkx/a1bOG8faGw7nLn5vEqBHqv1bp1izy1VD9fx7RC4Prywv1VzR/vt/9mYLv96y577ncAAHBDflrupo1hTXX7zMvYXoI34lryWXV5FQAAAJ/3PgDdsNANT2jKNQCsLCoBgBs5DMbg96d8OB/FFPS7769GA1sg4PcMMEMEuXlMwb2uELAVAeubW3aeKj9G8twMB5RVXhRr/wEAwM2Ut7rzhuSJzL7Mpmzuuj8XolleBQAAQBu/1Y0FvPyDNzwhgNVFJQAwp/VfdkxhfWG8fdddrmyc3WxM37CVnufBUD7oigK5kEs9lt+DTbWdUzn5J5r7y5lpxWe69pkhg4rd/OwwAAAA4Gbc8H2JcXDNEHzei/qn5llGW5fNx+q/N2d5r0DrWs4+q1R9d1M23Td15s2rAACArnLDEhbyG26YQwAri0oAYF7uxTj7Pf/FO9cyemFf5vdMDx305ch0oQsesn+cyUn+MmDXzS54X0D2kL8j27o1f/YCnuFzbztqud6+msdtx1QUqH3521uP6x0AAABuzrxs/9OebPhptkrn9fi4hy+G0fj91jzLaNmL/fvectcfn8ueyj9ULVfQJK8CAACQc40RPp3ImfeCYds7AMAqoxIAuAE9zM/VSLyxdjdk7/G5TP5yD+h6mJ/xoXr4zn5X08M9kdGV64Kv3xlwLofBeMFqHXIsV9k69FyF7fTlQg8vkM2jHvJP9DBC/noeXspLvW71c1A5AAAAZqfT2jjN7l2Yd/AU3xnkzLOMllhuY7hluuVXLpdQm1cBAAAr53S4kecRitP0HYPz0HmH84PwnULvfr6yQxtHlQMAVsfaRA/wVUFf7DWzAACwNLqcbpFmAwBwu7qe1pLXAABgOdWl0fQEAAAAAAAAAACgpagEAAAAAAAAAACgpagEAAAAAAAAAACgpagEAAAAAAAAAACgpagEAAAAAAAAAACgpda+fftW+Wr/R48eub8AAFgNKm1zf3ULaTYAALevq/kMjbwGAADLqyqPsjZR3N9Ja2trUjMLWohw7ybCHW3Q5XjMNdxNhHs3Ee7A/ej6tce9p5sId9wF4hlwM3XXEMMBAQAAAAAAAADQUlQCAAAAAAAAAADQUlQCAAAAAAAAAADQUlQCAAAAAAAAAADQUlQCAAAAAAAAAADQUlQCAAAAAAAAAADQUktbCTB+uyZra0cydp/TrmX0u5rv95H6y/u8VjLl8+HW/BjJTtW5dr/vfFyekLBxrWyqi4NYTmM5isNyruvf3VPe1sSCL0fhtqLp6IubD2iJ6487Km7vyOiH+6KEP5/9O32NTKcG91xzvdVvu8C/TskPLAR5NSxSlh8rSzObxbdVkMijJKb6vHLDPEpBeA2SR0EbNLs/uGsvu2ay59aqaebrax7RtTxvPgehhuUOcZ6WsgEsQnU80tMirvHonrYqaspO9HQn5YXRvdbeC9p/jbezJ8DusVxNJjIJpnM5/LQnG9y474Y618+XqKC/3qGcF+LMlRzv7kufTNhKsTfvvlyMrsKwFH39325YHo79+GOnq9FA9nvLVfEF3If1pyeFa6N4730lPTv7gqkH7Pf7Igfndjt/DWXd/YJ7Ql4NJfZ7bQ//nryK4736dhDkWyZy8vSW7lJf/pS9TwM5/m638+qJ+x7oqPjaC6bXt5MrCa3L8K+72haaoWwAi5CKR9l0IsMHbraOSpWdZNOt5YF8T16pbXUvHDo0HJDKcI91FntfzmjxcidOh89XPIFUGbL3xzKQUzn5hwLclfDlSDaGpyZBCRMOnbnWGbdT2Xtxt61M159+UNtV18PnszvdLgDfpVx+Ug/6P2+6z1hO5NWg7Ut/1Vq1rZDrywv175ZsdrzwAQBmQ9kAgNW3YpUAUffZt2fu+4YebKqbtsjF5fSmXRieIH7oSHQTDLvNJrq1Jx5carejFOZZ4Vrmweh8hgLX4jkMzrELg6MvcfjrcxgtmxhGoMm5L6XizJb67/TfS/tZi7svFbbZIE4UukAlwrp2O0oifna3xblr6bt7LM+SrdrWZfvFuVy933afbXzS5yvsrpdugRjOM8u1uS6bj9V/ny5lGouiuNwk/ON5au9NWoPtFOZR0yzXCOCJr6UZU2mnSbyNVSxjrqW+qLuDnA43zO/Ta6VmW2ZZ/V00X5M0vLPXUXyuyKthFodyriuC3vQTaVrIhkWcZrv458IunydKU826o3hTzD81uT8cyciLE/k+x2n4nMNcNYmTsfJl7HWgG0uYihb9W75fxWskPP/2XDTKMy3o2IEbK1zj3vPcrNy65nseje8lagquZbd8g+sbN3ejvGqqbKAurVDCbaopjiPxfTOVt2hyb03kh+iNvuym13+YfifiQKN7WrP0/Oijt6783lMfl4vrnzOuNmSuHbX8OHVuou0U8o1114NZPnWM7bY6lQAmANVDfNaVX03nsid7n9zvTfy4FJ3t3dq0LYR1hNoYSt4d1nTHVQ8d+UWgt/lwT8TvIqgeTPZ7WUTRF8CG2gu/S7tdhx+5SrfjXQz6gt8YbgXdhc4PTmXv4ap2id60NeW1wwLpG010Ds05LiZY+713spmdQ/eAuKaWvXzhvsuGEfAyULVhXEfFGd1eKms9am7MvX2v65IbZiYPywZxQt9sgnXoYTEkCOvS7fgPWy5+bvndqNR50YVchRtgJ9iWvvJ4U8o6j60/6cn6g/Xgd32+zn7NzqEKK/1gHCdUKvze/Ty9D8x2bV7L5Vf13+6muiqUxL3Mhr+XANXFkdp7k5snuR0/gdTXXzR00nd13frxFWjEZgj7b7xuryqy7pnCphk0uT5idcuYrp762p52+TfDXzS6RjR9vZ/JtpsnS38apfNN05q2SJxT8mqYmbpmzw90vm9R51Wl6+838/C361YPgw8v5WUWlnH+qfG9aF/2Pu/k69b3lkZ5uAbmua9UL2OHHAmGYjNDozXPi9flmerzycAd0XnpIG24kp3PeyrG3szsz6PktZfHAvKqUdlAk7RC35eDbWb3xSyOUDYATd0TnsuHafjqBrV+/rLRPa08PY/jwP7wRHaye5keiqxRvqe4/nieReWBAuqe2v/35XR95tyofJyXt7NDMHv7yvVQTp2MSg1muRUqg662fThRN8vkZ+tqcryrvt89Vn+lPvvOJyqZnv72/XiissCTwSiac3xojllFWvf3YKIy0iXsOgvr8LntmPX5/O2Urads2Tswd7hH51VdjOE5TP4eh2sU3smwcuF5EC5plpsljJV03NJcfMp/S28z3E59nCg75qnq+JB9Hxxrzu1zvI8N3df1vhBl4V0qHZ5h+JTcU+J7QxSnfHZ9dfEt3E5tHKm9N9XEj5rtpJddHSsdj2/oro7dxp36a6AwnycV/5pcH3H8b7SM+jW+rza5RtLH5ebJ7h0N05rbdF9xPj73zcIi/uxz9+XstybnNooPRfXpcradQlgFYVidNt9FOMfuK9xvSxh/iml0HL/SaVi4XPIelLw2w/BtFJcbrCdXmUdJLNPovjLfvSg+b+nzGJ+DYnho4bLpeaqPfTW17dqb1TIefxhfy9KZKI66uKmPJz15945kPE7HebMvbtuV11e+f9G1bK7ZqnTtfuhzslLiMEves7MwqstXai6cvN/S8/rxLwrbhLI4MpVII7To+MI4lanf/rJZuXhWwsaNiikPEz++eIL7QMk8Lm5k64rjciaMpxX3rcq4nK0/PY+Nh83ianYtlk/TbaT2K3mcbhvZ9d3oeojutfXX4mrQ57DKivQEcC1pD7ajFwa6YTZi5qVyYbcPMxSArtVyLwO8/udETmUgO79EbYafbJvWgqYbuvnb1TIlW930ZPsgG16gpGbLtGgbFMfd9LfjXhCWjWGua4vNPj/cM63hVpkdD12dw5JhgS7/VUeYtZD29H41Z0cuvdZWWavAphqFcc51iw6mrJbTvajyy5mpaT38NXpp04Nt2dFjvptugfVxYv2XHbVXdnvJFiCuhUHheIPtqC29nkxfbqlrhrN9nqXFJZqNEZ7sXXAaxE/NtCwM4tC0RZ598d5Yzt6o/xL3su3fVLLlhgyqjSO19yZ3zyzsd7Qd86JWF79N7b/d577eR2AGdozpQ9mOhuJa39Sdpptqdn2E5llGa3aNWIk03DNbWtNm5NWwSO79EG/qhwWqN+v497PcV6J40zAPV2ee+8q896JZ8uKVeaZG+WTgLqhrVL8H6LftKI1X8VzFxdjAb6UfTMUXRs76PEpee3nMlldtUDbQKK1wf5seI3FPMouygTbze4BEU/wi8IrRDJrd067l7LNOz3dkO7pv1afnzfI96fyC7WVo8scz5oEO/Vb6wZRdY04ij1KH66HcilQC2EifsvmzipSxXa/7iz8V3rjvHhrzG7ue1AOo+9U8gKjlztXDo71xu3m8h0wTufRDSpBQTB8ybWJTz3Sbccv33wxsN17dVdD9vrrcC3TUw35xWCBXYHCr6sI4U3KDzm4cnmJBb3gzqYsT8mAoJ6Ybk9o7Uyhh58kTfVMY0YCXkdRdrmwG1q63k5JjNM4rTCSbSidkiTfO+/cTN9kxep26OFJ7byq/Z4Z0lz63rC7Ict3/zHqBGZhMYYob330mdddHyszLNL1GKny9VKlYpmla02bk1bBgCx8WaEbz3Iua5uEamee+Musyi8iLh3mmunwycOtcQVRRSaX0rSKvvSxmy6s2LxuoSytMRZDJK/j3Z69CgLIBlHKNDme5p6Ua2aj40EhlXG6QX1hoHuiGuB5KrUglQLrWXiu9mTdSXjOXtfTSzMOj+/5Kj6OpLw6/tZkZb9jNY27w+iHTPrA0agWpIuhzdXFNWyEkCg1XmUrYPqjzdjp8HtV+30VGrFkYN+ce+hPrCwouKuKEZWtMs3l0RlAn+iaxb1Rodi2jFyoj6RWizHc8bWJbe4YFcxFXC3zf48CVtzjya70r4ohTfm8qv2f6xm91wYB3jRQK34BmkoW82hyZwWbXR2j2ZZpdI80tOq1ZReTVsHi9127ceT8s78g896K5Kj5LzXNfmXWZRefFG+aTgdvkGgYV3UUDtBB57eWxyLyqr1FaYQr6s+91uqYrBPyeAZQNoMIs9zRvTP9wqs+3zpXv8S00D3QTXA9VVqQSwGVQ35xFLYHmT8izbldncWGgqzEqKyS0w9uoP8oKGl2Bd94qxlwIp3LyTzS36zJrusq4hCfuNmO79bZDPixQT12M7jvNJMafTuQsqBxQGaa/zdmZsft2aN4wLuWGHCiEpWvh4RfOBuI4kWAfclVir1uxu5v8/t/RA++PMzn5pG7OpuuWa3EZdxtz83SV6er2aU/+TIatSgze63hV7AZ6d9ywFJ/PCvcPM7RExYvzgjiSEN6byu+Ztpug7lLn7p+F7nWuOyAwA1uIWrzfNm1hbc1zfcx7TTW5RppZeFqzssir4TZMhwVqNHyGCqdZ7jpp86fVzfJw9eaJ+/NeLwvLi8+bTwYWzlZKF6/hBfQCnAl57WWymLyqb960wqVr6n5J2QCaaXJPy4aeivPhKo6bnqxVvSqbxOXUkIhWPs+C8kA3x/VQZUUqAbIbYdgS6Prj8/m7l6oHwJcqogdvkFZRO6sxeqYLCVOthrMIbMbjct37gtZJ0VhcbjthK3i1nO6Sk23HPHxGF4vKsOsWZ+3hhgVynzLrT1+aB4bgnQHqvOsHvcHombod3UCTMJ5JT56NdI+G8I3iWQuPl6Z2sT5O2JtwNCZgMI6q3Y5+4J1ux+13vh2bEIQ3+WyeDnvyyr0ZPn7YVOfmd9sd/XDcsCb7lvT+UNeB7qbnxxEX5w9fuHGw6+JI7b3Jbafknmm34wrsogd/G5+BGaWG7ZgjHWtyfcTmWUarv0YaWnhas7rIq+FWuPtLLCv0fpen94vLB817X1FLNsjDNTDPfWXOe9Hi8uJN8snAXUgPR3v3eVzy2ktlQXlVX31aoe7Bv2eFqFO2ktU2TKNsAPWa3dNseq7y4X58c3G8Lj1vku9Jrj+YZ0F5oBvjeqg0qdFglluhbtCJNzO7N1ln0+7x5FjPl7/1ueyt2eXsG6C9dcZvTk+8uXoQvO062ic9JbYfbydch+LeZj2dRx97+s3dd0Hvw1ziN39HsvMQ/u7CzRy3nqrf9G1VvNU8Ov91YZyOaxXiOFEI7/o4UdgnNYXHp8TbKcSD+LzZdcx8PB69jlYoXE9qKgmnOK7asInexF9yX8jDLP5cK44jxbf418aR2nuTFm+nGC9sfJlOeh3hOVg9+ji66q6OvSyOhPFJ/T7S8TQdl+w6UveqmuvDxP14nXXXVPp6Ly4X7U9yW+m8RuGavcO0W2/vPqTTm+icqvNEXu126H1ok+r8SxaGqWs0Cw+dTobpdvI+45YJ02y7/up40+Re5MRxsjJ+pLZtVcf9dB6l7npJnpNsXflyze6hdl2p8+Kta4ZrfVXo4+qyZTz+5P0jvmcfqPTIv2ZSzwuFya3zBs+jYd7IXkfhtRNdy1X3lnuk932luDCL71theKjzHOVVq9OilJq0onB/1VO4/sJ9W02F58radKW4Hb2O2Y/nfun9boP4uk9NNm6m0/IsvIN4UHdPM9LxYKo8z1Efl7V4/Yl56uJq/HtqcvdQcx6jfEQy71G4Rze4HqJ7bTp/tHr0sVZZ0/+omUrp1lU1s6CFCPduItzRBl2Ox1zD3US4dxPhDtyPrl973Hu6iXDHXSCeATdTdw2tzHBAAAAAAAAAAABgNlQCAAAAAAAAAADQUlQCAAAAAAAAAADQUlQCAAAAAAAAAADQUlQCAAAAAAAAAADQUmvfvn2rfPX2o0eP3F8AAKwGlba5v7qFNBsAgNvX1XyGRl4DAIDlVZVHWZso7u+ktbU1qZkFLUS4dxPhjjbocjzmGu4mwr2bCHfgfnT92uPe002EO+4C8Qy4mbpriOGAAAAAAAAAAABoKSoBAAAAAAAAAABoKSoBAAAAAAAAAABoKSoBAAAAAAAAAABoKSoBAAAAAAAAAABoKSoBAAAAAAAAAABoKSoBqvwYyc7ajox+uM9YMmM5WluTtdowcvO9HbvPN/DlKNje9ccd9flIbQHLwITH7yO5dp+nrmX0u44r02nnY2IuE57V84Rs3Irni9dTuj4Tn7x5/H039x/vt3gK4nN2LWRTKk7G5yAdb+N9P/rifgCWHWl2NxHunVWe5lt1v2fGb/20MZ7CuDVzPiHKN05F6XZyP5uk7UpVXsKI15NN8frifEJqv5vlp4DWIs1BE/F9mfKCpWHS/AZ5gyKX/s1UpjTPMill6fjy3otsfimL94s6D1gEKgFKqQvt4Z6cuk9YYrsiJw/LElZ9w+zLvvt0Y09eyWRyIsMH7jOWh8psbQxTV6yOAxuyJ8dyNZmo8FPT92OR4UaQEOmEamMocvy9fJ7Y+G06bl3+q/Zj19uem06errs5XMLY25fDcfb7uRx+2pONLFPyYCgn0fJ6Oj/QPw7k+I+e/kNxcfzg3JtnX/pBZrN4Dq5GF2qeMOOgM0XxObjo8YCPVUCa3U2Ee2eVpvlO3e+e3muX5vmTSv8G+seDl3meryyfUJ5Gqvip0vkCU4gYpduPVfpfSLdTaXuYbtfmJbQfl3Kh/pvOk02vJMtJ2Af0OJ8gsvfQ314xL9EkrwS0B2kO6hXvy+n7N1bNugz/UuH5eppy3r6s4r0vF6OrPD7l03hLpdP69+WrZFp/eqL20c9nYGmoyFOpwSztMz40x22nwURl9jtnNcL9fHKow+jgeHK8KxOV0BbpsDw4dPOduy8X52o0UOfqUO1JO6zq9X5+kF2vato9nqiH0ylzPRev4zDsbFwajIIlq8PXu0+Ey12Z+BivK5TeXtm+5tw2/bhu9zFa5vvxZOCtPzmP28/8uoiWyaxiHNfnqKs6eezetUia3SGEezfDXalM85W63+u59DFYNstzhqmh3VY6jZzuRxg/08uE+YJ02hvnHRrmJcznmnQ8kb/I1p8fc7xeZxXzCTelz1WXdfL4SXM6H++biZ6vciX3axTcdjwzafBceYN5lMWHJpovW5UXWQ43OQ+YVd01RE+AmO661dsXdYMWldi7L7HcNmX7t4Hs/12s/xz/fSHHf2y7TxndkqlsCJesht7Wuu58HJl5TXcr3arKdO2rqcU387hlsuXcT1g83Xq9/2ZgWuapBLCosvfGhVyasOzJK3W/9FvqV7Ot+w7H51K8S1zK5SeRrc2KdX05E7W0vIy3V7mvKk6+3zc9DJ49cV81ZHsm7Mh2sN51c93ImzPbcuDHpZzKQHZ+Cfdp/Zcd9e2+nDEsEJYRaXY3Ee6dVZfm1+YJmvjyp+ypdPzwxVCllHNScbT/5lDOC/HzWi6/qv8OtqPWcT3ZVvt7+vnM5BkbtaBrmJe4vrxQeYBNlVu+oUb5KaCFSHPQWHVr8dN/L91fmIcZyicvZzmSsSl3SfSQ88tiSspuzoJ1RfOY9R7JyFvX0Zf0kDaF7TXoGRceh56KLfnHb13PuywumX3y57dlWnp7vddXcry7L/1428EyaorKpcx+qO/GwTG4cxEtGw8RXHee7e+z9lDIej6k16lVn++snG8crscddyH+2IU6h0qAmMngzlIYiGWwvrk1LczMjeXsa1zwOZvT4Z5ajetu9Vf9w6C5KZnCYbfMRN2Q1e077OKNRbLd+GcfoskUjMuWbJYtpxI+PZTAYPQsegjXiZPtov8qVRhvHsoHcvHeT2TChHP6QO4S72yqyjSUFEqsP30ph3Iqe/+bLjv+n+6qXCzQT2v24H5xSVUWlhBpdjcR7p1Vl+bPmyeYKqtw78mzka44fzd9IP0xkndv1P9xgb4e7sfkBefoBv/pUtJFRC7v4RX6N8tLXMvZZ53fOZHn/jxxA5Unz+R4V2T//fT764/v1PZUvuPX6qOozU8Bq440BzflhmUb/Hzj6tiOsoXDpnLdlLGoSSV1fZXW+nRZzMZwazqPms4P1HNyPHT0pz3Z+1o1/J22L3ufd/J5Us/9ulA5GCZQD8n3pl/5TK+X6XvbNuVFugDfT5dN/mIgx+/tc78tY7qYbkcfuxvy2qbR6zJ8cRiUh5WWS8XpvzoX/X9fevuiz5fKJ7zf9M7PQPZ70/PT+DzPROdlwiEH43ApPd/RMZ0O+3L5ws2jh3fUwySqvM+7n7MhlRLnvEOoBEA7PNlWj0VRa+UvZ3Lx23ZtwX2lmVpdj+VPU2h85SUS6ob8Xo8ruy/vGFd9eXzRLfRURqxQwK+YsXpVwqczFSr8P0QZ/uuPz2Xvk8qAlLTwMA/lcipbWcKjp7GKnd7Y+uaB2SRG72SzJhGzygolNNuL4VzUsu7h3mYspoUgmz8PkgUL9sHdebCp4ulpsULA9BAAAKADKnoBmNb533fkRD8c6/T24Z5s6YfrID+g0usXe3Ja1lBArXXzsfrv62WU1rseAgm25Zp6MNb75VUsNMtL2N6JIjvyIcuTJBuo2NarV7+dmAdlfXzZA376OJyq/BQAQHHpQqrnFprJ0ma/cv3Jq6jHX1YWE6ZHvT9sWUzYq109y3sNPNeffrCF316jOq2yR6BrCDAYffAaHqjnct1bSKXDcct5wy0TrtcV4H86kbOskP2fE5WPcO8kUss8N8flbcdV3KutTyvgTXlY1rjPngsJ8iKuXErlG54H5VJ+uYYbKUCtN6uA0OzIAFk5wSznuTnb8CAdLif/qP3Nzt3Yb+jhzrc6pj/97frH/WBbdvS5Csp13HGWNrxoNyoB0BK2G/V0SCBdaHrRsCV0hceb+U2olqvhLwwD4248dP9bErqQv6SA3/BeyGtf1Oe1CnCJcFXrPtuFP3podpmU0+Gf3gN3w0RM+3EmJyrjM0hVarmuetOa7elDfJb5sL0FwtpuXYOvH9xz6rhf6mvIq+XPzxUAAB0w/tu0q5PtQsG3bYW49vBSXrq0Vhe4S099F6St1Q0FNPOgrAvvvZaCptu/Kawvyl9c7F7WH7cwrM5L2IYCYW/WRAMVnd7rgv+8NaCa1Gb66rvSFx/X5acAAPn9fa7eYTBsI7ti2mwauuVsepf12MmHfkm9zLswRF40TK7hFbAnmIJ6NU+hvMkUxpf0onflDLacwOUr9D4Gz9u2B1/WC89uJ65Acg0KynrhmZEJ1BmLe/KlyqVmHi5whvM8A9OwIREuuoGC2ZYburhwvInzTY+balQCoDV6v6rLPx/f/ExO5GZDAc2MFtPLTz+w6gRKPbBeNRjeqfdaj/mftQqoa91XzWZS/KF3miViWmkmQ++T6yHgP4Drighd6TDt1q8Ta3UsutBBJ9Jqei4fCuOa6oIG25XPJeYvRD7o5dzvAAC011jOdOV4Ybx+JdUKUaetrpu5KXBv0FDA0IUAejndYt+lyWe/2u72ldRyH+IhiWbISwQebMqW+i8rCLDDCEaVF09emX2KGzAYM+anAKCLzNAvpvVyTa8qVAp6r3vMkNAeMwSOS1f77v1AZjgY93tuloaelbzn5nyyw/SUyQvNTQ8/le6aSnf/aVv34MvSdjekX1lBvf+9a5Dq0yMRhPtW3uBgFo3Pc2PlvSEztiIIi0AlANrDPPTYLki60FRuOhTQrMxwKlhausX8TR5YXWt83b1vmpDaRP50uKH+bj4GXthqoU6W+FdUaiUyMsUhgFxrQDfpGnU7nnC43rzFoZ70eTIZiqbvFwAAYEWVtZzLJQrcXWG6LnC3FfbRQ7dp3ecKCfwW/F6vQz3pwiFTyJGqgCgxW16igUQhgy1gid4ddNP8FAC0nm3lTQXAYpSld0HBsKuINy/wNmlrxfuBCkPyzcsV4iem5DtE3BB603H6G/YOKTzr20YL/igBJg8SPNe7wvlov8xU0Vux1izneYHiCh/Mj0oAtEg2JNBIzj7LzIWWZTXMjbkHwemQRE42lAvdku6PfmDVD+IH5+kXPOsWbephvTB2n6tRN2EXPbDbybaSt4mgTcRt7X6xQsB2cbMJczaunhnfzudeKhzGXTueb3IooEwiI+N3qbO19fE+ucqFLFNRcg5soQYv/AMAtFvZcANT6ffm6KX0UJDZcIDBZFr3uQdx99Bt8gmF9/+4B3qXV0zPk+VVbZrcKC/h0vbCkD5uv4MKj8TYuPaceHmAuvwUAHSergDQLa7tvZ8KgJuzBcDF8eaD8huVrpkUMhqaOaugDxTSO/dcPENFvE2DE2Pgl5UrKDZNLTYosEMR+rL8Rvo9QtmL+6fHasfpz981YBrHJvIHar6jVJ5gFrOc58bKx+jP80Pu/YXpPE9xf1COSgC0ih0SaE/2KocCspUFQfdmVyt7Mz15Zrpp+y+CcUPIqNswLwK6Jzohzh5Yy2q9H2Tj4fsF5SqRNGPbzRZ22Utx+l6Lv2z8/Txhdts7HT73uvSr7Zn9dC8ByngFDEXZi4TCF/zE28veCeC/nNqOT+l1/c/OQT6EkKKui40mQxsAALDi/MrzAvcSvmQ+YTf10v5y2TsBpu//0QVGfdn3hvbL5kml7fnL+JrkJcrmifY7lXfJ8gD59prkpwCg4+wzlq4AuJsW0p2QSoPz8htXUe1GZQgaZKp0S7daLwrTuzzM/pghbcvLD7z36WVlPyX5AluZERVkF8qhVD5EHWs2pJ8p3/LzDC5tzisTTKVDXy5GV16Fky2X0qMV+JUR47d6FIMblkvNdJ6bS73DMDs3pkyjKs8zYz6s66gEQLu4m1Jlq2ml9/pKJSTqJrOmW22r6f2mXEXjo8/DtAJT65l2BVcJymP1sNS0qxcWzo5zqwTD+EynLGHUw+BcjS6mcUIP9aMfdGcNO5VAnegeAt72NoZSaAlityfeOIJue/GDtattL/XklRmDT8yQRGXbs+8E2PLm6X89lqvo2Mw7AczLkN0+9S5owQIA6IC68Wjty+nOD7y8Y5Zuz9oiXucTVLptXvJr1uPyiv56XF7CT7eztN0fYqBJXqJ0nsT2/LyLbvGvhyzIX/7XMD8FAJ31YyTvTIFuaqx4NSV6eKGJRBqskrlzv/zGpa3++3bsy/xtz/2g0Hr3WI5lOl//jR7WZ/ZKm2L6mkjPffq5Xe2zHUrYLaPLocx4+lnlgG0Vf/r5zMYV936evHzp7203/r6LYw9PZCfKG2jFcqn08//MZjnPFYqjJ+jyiisVLuVlEan8jK78oGfibNYmuq9qBX1ya2ZBCxHu3US4ow26HI+5hruJcO8mwh24H12/9rj3dBPhjrswSzzTPeQ2Pu+08P00Yzla66v/ZmiMp3sEPNwTGV2l30eAzqi7hugJAAAAAAAAAGC5fDkyBZtBjzM3BE3dCBCrqSevXCv+Rr3sXAXA6cE5FQCoRSUAAAAAAAAAgOUSD4mjp4d7suUNWdc6bshfO3Sg/94Bn36nkD0XugcA7+tBEwwHhCTCvZsId7RBl+Mx13A3Ee7dRLgD96Pr1x73nm4i3HEXiGcJWUt/99E3YPgfROquISoBkES4dxPhjjbocjzmGu4mwr2bCHfgfnT92uPe002EO+4C8Qy4mbpriOGAAAAAAAAAAABoqbVv375VVrM9evTI/QUAwGpQaZv7q1tIswEAuH1dzWdo5DUAAFheVXkUhgNCEuHeTYQ72qDL8ZhruJsI924i3IH70fVrj3tPNxHuuAvEM+Bm6q4hhgMCAAAAAAAAAKClqAQAAAAAAAAAAKClqAQAAAAAAAAAAKClqAQAAAAAAAAAAKClqAQAAAAAAAAAAKClqAQAAAAAAAAAAKClqAQouJbR72uytjaddj5eu99wX8ZvwzAx09ux+3U2Zl2/j1RIz8rFjZm2O88ymMX1x51i3FBT4br9chTOk4oD8TypcIvnWTuSVOjGcbbuPmKPI7GuJvvkMdtNzhPf29L77SvdJ2BpkGZ3E+EOl0ZV5Ofqfg81SCN/jGTHi3P5lG2j7PdsCtLmeba3I6Mf7jetkB8Jp9JrwiwXrctokk/g2kMXEe8xo/j+PVfZA+7GWI50GN1KeY2+d6TS28UrKxO5neNaBHve83tpad4Ei0YlQEBHxA3Zk2O5mkxkoqfvxyLDjSW+eFrOPeD0v3phYqZzOXzTv+MbxboM/1Lbft1zn7EMLv89FdmN48dETp6uuzlcotjbl8Nx9ruKP5/2ZMPPkOm4Fs+j45h37RfXM5Hzg33pB/HQPij03xzKuZtnMj6UU3UfKX1gUBnF50N1HLEG++TT+9d/4z4Eive2q9FFtN+Rsn0ClgZpdjcR7lBU+rhRlUbV/R5omEb+uJRTGcjxdxfvsumvocohKg+GcuJ/76bzA/2jWu6PLP+o8wlqe4/PvXl0XsIrdNfp/8M9kdFVPs/VSGTv4ZocfXHzPHmV/zadruR4V/94KC+9fNCUOlaVryhqcg649tBFxHvMSFcABPdvdV9WMWiDhlXd8+VP2fvk/r4tOr+wtqbyPFvTsod8UnHvqy4zW8aKy568Uvvol9ngjqjIUanBLO0xPlTHO5iozH3gajRQ3x9O1EXVGcsR7ueTQ7UfclB25ut+T1MPYxPZPZ6ojNwduJqoh7GZ9/G+rN71bs/vYFQVmjaeFOYJrncXTlG8sNd+NE8hLKP1l9xHyuOdW6+Oy8F9psk+Zfx1qCnax8plknGzbJ9Ww+rF48Xp1LGTZucId8K9S0x6atInNSXS1brfY03TSDNfg/UFTHyVyeHYfVbS2wvzEuk8Q1W6baXXPTU9N+E8jc4B115On8Mu69TxE+9zXY/3TSXv39+PJwN1/vy0AGl3H8/mK1NqpOT+sTBN1+/iX3WZyT277XPVIXXXED0BfKZFzYkMH7jPgQu5vLMW59CuP76T/aDlVKwnz0YDOfx5M+heV+wKlW7tfBYM1xLNY2pUj2Tkrevoi+sKGrX6KGyvQauQ4vBGtAyYz6VcfhLZ2qyoQf5ypuJRokVc5fWeUt0T5PTfS/P/+O99kYOXhfX2Xqtls9aCnuuPz03ronMVl+fjWhR+0j0PshaAIdtbYke2g31al+3f1DbfnBXi3s33CbgDpNndRLh3ms4/9d/Y1vjnpoV9qO73lKZppJnv8WYhHS+n0uf3Kk+weyzPnrivlPT2erKt9vf085nJ05blGYyvl0G+d2osf+reD4k8iKHytqaX4vjQfTHV6Bxw7aGLiPeYUeX9GzcSlqEcydiU2aTKcbz54rKZaKimnY/2GT6kewB569BTsJ5puVBYFjTdl2wEAZWym158/vK1ZUHxcFJqynsBZvQ8ZsSA7P7k9snNr1v+231T+yRDOTEjEzyPysXi4wzPpV0+O8/T+cy+FM5jnDOpO4f291l7KMRlb4Xl4/CPhuIy5159N06FW+o4W4hKgAZMxli2ZDOZ+ON2XMvZ59QDSWj96Ym8erqeJ7L6phB3hTo/0Dfe6Mb6aU/2vCGGbBfrKAGRfdn7vJPP88p7gMvom8jGULyu4dXDtWjmATUY3kgX3O5Ln7ECZ2cK+Ady8X56s45v2NeXFyoebcpmnBAFYbQuwxfqoVjFiz/zZd3DdE0c1MMDqC3I4OdN9e+1XH51fzdJRNQ8Jv68H6r9izXdJ1c5MXkl8w1UFT3AVO4TsPxIs7uJcO8GU7hSUYFf9/vssjRyLGdvVPr+9V2Qtlfl97JhAA5f+IVBNp9QWpnw6VJSxRGWbfhQtmxl45m8sGCevEJ1QSfXHrqIeI/m1DPowz05jSqEMQtbwB0OtyvSj4a3ywreS4fS1c/n0VBNO5/3VNrp02UGfbnwhuPTQ4AN1HoKBc7qu+fyIV/X8e603EmXU01MpbttmJA1JKwtC9LpdTQcoF7Pfi8sqxr/T8Wpg3NXRqX3ecMbZlAf14Z6pvfKDZ48M/t38o87BlOI35d9tY5sO2VlYv33m/n+6gYW+z2V/3l4KS/dd3r/9NDH0/KOGc7hDAplb25otmydxfBX5zY1FNenPen/+3I6jwk3dUzecV6NBoVz3hrqACs1mKXdTLeUJe86cwvuP9zn6ZZVMuxL1P3OdoWOu2+mujzHXfaiecq6VQXLppcJ16ssSfenVbvebVfc6HxG16wNbz3559fFr0JXe/e9m+qvexe+eXzylvfXnbyPhPG1vFvxLPsUxTenbN323BTPS/0+LTd9nrqqy8duJK+19iPcCfcuMmlYxfA8db9nGqWRLv8Wpq8ufU5uw6XHhd/S6bRWl+YW02yf25fEegvbTOQ5m+cTIlx7nUSaQ7xHE9lzYs19FIFkPHPXXFyGEqZR4XNsziyr07eydDlMPyvTw3zZknXF6Wv8uUlZULxMkt7n6Tz2PET7bNYzPS7NHJv7nFwmOi57LqJ9cesNjyE8983OYRRedcddcu7Mtsw6S8I/KrNLHXfyOMvCagUkryEPPQGquFYzKlLJB15YsSSi1txmymrowpeLmK4++ndd826+8ZiW4b7U0CiDytYd1/+cmBfE7fwSxY0n26JuQHJxmajldC+NszW2XpetqBYbzZga9vx8Ok9emRrq0+GfQY3vtKucpuKKrpn3Wtnb+PJONvNeHbYGvWqopvFbPQyPXnfcsu5Qzv1uoIl9Gr/ty37NvWWefUpZf/pS7VHY20TXlMcvEW6yT8DSIs3uJsIdN9Qojcxe+hsMCVjMS+R+nMmJyh8MfttOt/ifUbY/g9GHdC8H0zNS5T5+LbbzN0P86SEDS4Yz1JrmEwJce+gi4j0ay3prq2m8ZVoa36QVdJeZnv0qldqOelJs/jxwfymud35hmGAzpJd+Vre96Yrp8qZsesPp2vIF92yvr3dX5pRMD2caIlBpUhZkypKKQwgFdJqfjwzgeiqOnoXlEQ82RZ8dO1pBzC4jB9tRGYYrEwt6Jc7e42mmc9iUCl9d9hbvi9mWLncpC/8H27KjwjcbutkolAV2C5UAZXRkdd22rhjT7R64m3Fh3FNb0G8LRHWCqovbp0wXoPwm47pe6a5H7vfcrDfsUu4G7bZpp755ECuTV07oLltmHPficeBmbIbA776eqNDxK2vU9f7OJJ7+w7XOuJ2bh+J3iQybDkedkB2OE0NFJRKW3q9ma3afvuhxeVX8fF9xb5ljn8rp60Yt90l3h7Pxz3Rd9ONdk30ClhVpdjcR7liIBmlkGfeQHTf8KG0oUsEOL1Kk87a6S/9gdJU3dImZ9xElCkj0NfJcLVs/DNCM54BrD11EvMe8ShqpoZmy9HF9c8v9pZhC4gqukLhoXTYfuz8Nr9Gpvt7dcDk6/Jo5rRxCr74syJZ3me3poYyyffEqBEylSFae5RoBlL0j0f++cB799bvJDCF0Yzc9h0W2IqhCXfgjRyVAihsrjAT+PmW1kCdy1nQcLvegox+SbCVBxZiwpS9Vm5U3Ll00JR/UTEGrLTi289U9lOGmghYCNYqJp62MCmqOXa19ugIgbElQxj6shxVINsHdl776228l0myfmggr0HT8tO9LsK0IZtknYKmQZncT4Y6Fqk4jZ1P1XitX2FCWD40aEejCgroKAP2wnW7Rp/bEVEa48Xtd2l72osLG54BrD11EvAfuTdnzfG3BsO/BpnhVBh73rh7H9Iz3y3gqetHNbIayIPuOIztdjdTx6wL70vcQFRs82vTfbxxg8wp+j8FpuVk83ayM6lbPYRnXKAP1qASI6QReZ451bRUJ/L2yXZPVQ8r/GtaXu9q/uNA0ewAKFF685h7YEg9QZdZ/2VE3mn05K3QBH5kuT6kXwdqEqniTtgWwmJWtSS8OjWNqud1Dqw0n7yU4GfdSYb+VXnEIJ9dtMO9GpysAdK297WVS6AGg7hhllVcmjN0++Yl6NpnE3SWW/oN+/T7Vsz1k4vPk4rxrRTDLPgFLgzS7mwh3LFCTNNLEuVTezuQ94xb/ZUMOWKYwo5APdd35vWX8HoeVabBr3ZgaCigbNjGYTIvD8EWFjc6BxrWHLiLeozE3xEuhsNYVNHd8GJJ52Rb/xXKXoGV72ZDMedmMa0j3+UyFhs+m2VZZOLnK9huatyxo/ekHOY5Hycj+NoXfce+DsfypG/N5x3H98Z0Z9te+nLon27pnSuFc2LzHmjc04Oxu5xxmZTqFXhYmf7YjI7U1E0v+jq69bHjGGcpOWk9lBis1mKU9ki/96qalCfcsTMpeWqJ/y14ukgq/fPnpSz3OD9xy3nz2O+9lIMkXk7htVi2XzZO/8CRaxr1IJXsxiZG9tKXqRSh3RO/HSkmEuX2xS/gSl2I4hS8A0krD0ot7xXlS3LrzOKAkX6ATsvsdxvMm+xQqxlGr+KIcu+6y9VipfVoFKxePF6hTx06anSPcu6nL9zrNpGN+Whup+32qSRqZSH/L4qL7vjzNL+YT4u2l8jKl6l6mF0vO3+AccO3lun7tkeZ0U9fjfWOJ5z57P214T++4dDxLpMF5GUpV2umWy9Jbdz0X0zo1uWvcfg7TyHyePN0ueeaOwz7OD7jfK8uCEvGnsN9mnuy4o2PMPut1BsfknTstdW+Ltp0sC0jtn5rDz0M0O4dRvsOstzovU1yvy0+5YygNf+8YzDq8/Jdml4u2HYfdCtHnoErtnbxuBW2SR8ySaRUjwLz08S6T7IIOpujiNbKbWT7pCz68OWQX/nEQ3qmbW3wTSt/sC/sW/J5Yxt0480kfR3xjvyd6f1aPC998Sice1eFkFebx41ghbkVTEB+9xNdNdfcPu+0oHiqV+1SQjqNWdJ4q12OV7dOy08fXVV06dtLsKX28XUG4T+nj7bLUg5yv7vdQszQyjn/JfFvyATkW5xP8tDbO18RTmC7btLr6wTlQ+qBdfQ649qb08XZZl46feD+ljxcNJcsk0ERVPAuvR3VOTXoWndu4rCV+Lo7D5uC48PycSuvDtLbkmbuQ/ntpfZamxvunv4/LguJ5/N8Mm15Pt+On33Yfg2NIlg1ocX4jzBskywIKx6jZ9fj7WH8Oo2XMeqfbL8vb2O/D9Qbicxcdu9mvKH+T3JYLk1W8x+vjrrKm/1EzldJdX2tmQQsR7t1EuKMNuhyPuYa7iXDvJsIduB9dv/a493QT4Y67MEs8My/O/7zTyfd0zHPsdphBPdQv76Vss7priHcCAAAAAAAAAFguqffy/BjJc/3i/JL377SdeU+A7MlGw/H7bQWAfh8QFQBdR08AJBHu3US4ow26HI+5hruJcO8mwh24H12/9rj3dBPhjrtQFs9My3f9slvP4Xgir8yLbrvLFu6rP/SLy93L/gPZi82FHgBdUXevphIASYR7NxHuaIMux2Ou4W4i3LuJcAfuR9evPe493US44y4Qz+aTVwYUUPjfNXXXEJUASCLcu4lwRxt0OR5zDXcT4d5NhDtwP7p+7XHv6SbCHXeBeAbcTN01xDsBAAAAAAAAAABoqbVv375VVrM9evTI/QUAwGpQaZv7q1tIswEAuH1dzWdo5DUAAFheVXkUhgNCEuHeTYQ72qDL8ZhruJsI924i3IH70fVrj3tPNxHuuAvEM+Bm6q4hhgMCAAAAAAAAAKClqAQAAAAAAAAAAKClqAQAAAAAAAAAAKClqAQAAAAAAAAAAKClqAQAAAAAAAAAAKClqAQAAAAAAAAAAKClqARIGL9dk7W16XT0xf2AJXIto9/DcNLTzsdr9/sMfoxkZ+5wHsvRzNudZxmUuf64U4gHQVz4cpT8PZv8cIiv/bW3Y/eLz4ZfPs/vIxUbq7i4mlhXvO/FOBFtK5+O1C++4vVQiM8unk/n2ZHRD/ebLzpfxFMsO9LsLire87hXdY9JQyvS4LrfQ3GcitNZq9H9ppDeptc1VZ4vDLeXSrfnuBZMOh+uq5D/CaZw3jjvwj0XXUBeAzOJ04HGaRFum7mW5wqP8mf6cg2WKeQZsqku73Bf4mOibGvVUAkQ0TeF/ptDOZ9MZKKn8aHs94jUy8Q+fGzI3uNzG0bZ9P1YZLhxxzfMnrxS2z55uu4+465d/nsqsnssV35c8MPkyavgeztdyfGu/vFQXpr5bGIWXPuTczl80w8zCSaR7sv+wTTunT/ek42KOHf98bnsfXIfPDoebwxFjr+77bn4G9xrflzKhfrvcJztUza9UjEvoxNedT3I9BxcjQbmvpU/oOgH/od7IqOrfB1XI5G9h9FDjJ6vd1G9T8ASIc3uouI9L0//Z3oww0pT6dXGUKX/Zep+D6TS0QvpJwrKa+83hfRW5zf21brK8wnjtypf4f72me199fdJp9v+Ps1zLahlesWt9V675f1JrWugfzx4KcMHZjazT3He5YJ7LlqOvAZmop8X43RA3amrnhexCtZl+JcKz9fTp/Cb0Wn4mskzbBWe9bN8iPp96SqQFn0ecOdUBKvUYJb2+H48UZndyeHYfXbOD2Qiu8cTlcHujKUNdxdGg1FJaNT9nlIS7rfnfHI46z7ekdW73q8mx7uzn8ur0UAd62CiHmKtsjgwPgzmM/cCOVQh6KsIT7defV7lwF/KLhN+l1i/2X68vZA9lngee16y9afvYeE8ZfuUXv9y61S6FSHNLovv7dapcI/uy5lVvFfdVFfvdTatdFPiWq/7PVbIExhRGtnofhOnq05VPtPEZ7uvQT7CfR8uE61/jmthem6Ky4Xctvzz544jzu9w7XVPp46fvEau6/G+qWTcqEoHELjteHa3125JvsA9d9eXYSTS4qWzvGVbXVV3DdETwPdgKCfqnL164j5j6Yz/tyeneevtBBWGLw8GsrXpPhuultWfUi2kLqOuWNE8Wbfy0dtsHt0ay647bAlS7JpNl9HbcimXn0SF9yw9Mcbyp24d6LVsq772T+XStLq7lsuv6r+Dba8VvtaT7QM11+ezqJZexYMXuhXIuet1MLvrywuR3U0JonPgWs4+n8pg9Czap7CG3rTw+2uovk34emn3O+t18Gu0pl92ZCD7ckYcxrIhze4m07vrZHr/Dly4+zXayrbIHZiW6OpBvqDu9xTbo3BHtoM4tS7bvw1E3pzZlptN7jc/zuTkk9r2H1HruNJlbav8w/G5ytmGTPqvvt0Olon2adZr4cuRbc08jreW8OVP04vx8IWXd1D5BJXjkJ1fwtwE+QS0GnkNzKjyuQs3otP4aRnLkYx177uaIevSQ+mJnAXriuYx6z2Skbeuoy/poX0K26vtlarXY0cWyEYuCNahW/67IYJ2Pop6pld5hE978jzqeVS93ayMahyWS7leBYXzaBfKhb/H86TPQ724TC7ebk0ZmjsnR1+i9Zj9iJZdut4Ty4VKgBr64uq/iTLBuCdjOVNhUSyEDfVen6iMWhZa+ibRlwtvGJSJ7t78pl/owrk/9LtiuaFg4pubugHvSTYUTOrBS28v6prtuoxSEXALvpypx86BXLz3bvpqqjrX1x/fmWUKD+kJ9iF8IJvJB+zIp0u5dH9q47c2Hnx4mirC78mzkX6QfzfNcKiE7V0Qv20Bv8iJPPeOLUzUppUgYUYgndkJ2WXl8aa9t7mH+7JjvbgkKcXyI83uLlOQK1vN7tdYWXbYmrKC7/rfZ1desVS435h0VMfBJg+j00KAVOGirZgoawRQXdmVvBb0w7OpcPCHEyyj9u39vhlq8dkMBZ/kE9AV5DUwm7EcPdyT0xnvqfDZdDUclkukHw1vp6/NjeGWN7yvbhBwKnsPowJnXaZTOdyeti97n3fyeVJptS4sD4bIKytD8plKdnUcrrGeXcd0n69+O5ENHV/Uc7mtdLflBn6Dw6bbPR325fKFm0eXganj3lD5knc/R0MWevkUvW5/KMLUPDMzBfjRkMoH/lCJ5WVohTK73jvZzI5bN2rQx62WzY9Tnwt9nDNXUnSIOlGVGszSTl733GL3nfZbynAv6YZcpayLctANrGy9UTfrdHfxsPtTeh63vXw/lrfL1Kpd7/Z8R10r3bWbPr/pIW+SXLzw5013H3Td9Px4FsSdsm6ASrYNN4VdRN2+BtuLtuUv760/eV4iNk56cbVkWIFljq9l9LF3VWePnTTb/dVRlff99up6uKfT5Km63zOVecVUulhyv8nSXj1N099EHkEJt1lMZ0v3vTStdpLXQpQPabiOQh7C5TkK3ye32W76eLuss8fv4rqZyGugVnb/11PFPReBZDwrSZfCdLrkmTVKu+wycZqfSifj7UXzuPUWthcsGy2j6O3nyyS348oA/H0023KfG23XrSO4T7l9ifIWQX6kMp3PznN8TPVlBek8jV1Ob6s6H1Z13KnjLNted+h4UIWeAGXyl4leyfFXXbtU7CaDJeG6Bk1bQevJhtf60xMVhq7Vkzefbr0RKwwp82RbDuVUTv7xax+rWhm6ltuFLuUivV/V7YlhChbOhm9UM6+uXXXjl9Phn8Vr1vQcUElJNORNkWuxoWJAVkuv9f5wNehezbJp8R+8+Fct29uXwehDRUtE10rw4aW8NPcZW2stPfVdXstuXzoddiddl+F7/aK+fXnn14rrFyN7+7n+9IMZgmj/fbrGPmvBVL2PwAohze4u18JZ3wc/8JJ+zGH96UuV2oet3LJ0MqnmfqMeUL18SSLdVnH2+VDlMBq1yp9BybVw/fF50Oqwzvhvk1OKhiJSHughN3UrPK+1ZLZNoAvIa2AmbnhWHWfGW7L3kJdJzys9RJ7I5s8D95dmn52zIXbyIW3MM32k0NMuGm7PqB4N4PqfE6+1vseUIZX1jtMjW0yXMeltoYeI2jc9lHBJb8BZtjv4uXxQ4aRg+DOvV+ON0nk3pHI2+kDOhpfeVlnvx1QZ2mzDQCOFSoBaJYVuuHsPNmVL/Xf6rz/oiuJuVjZTprtz+YmB7lrkJQCuC5IuJA41HPKlCdfNylZGuIkHpDtlMwTFSpfSB9uAjjN9dcXr7obRA7qOa244qSxsz34N49z4rVq2rjAqG2s3KABQCaHrpvdn1dBRqeugkKi6jEw0RJFmu0mqrMPoKs8kVXLvCgBWA2l2p+gCSNfF/orxdzE3/SDquo+7tP25fLDdzCul7zeFB9QH27KjHuhtuq0eql/Y/GhqaIE6tiAkoexamLnCoXroTT3ckh1aweVvX4h80OfO/Q50A3kNzKiqkRpq2WHuitY39VPxlH7OzZ7Rs/cDTfTztfs9V3h2npeXHuaTLkcoYZ6rs0alLr0t2xf/ezPcoG/G7c4grzzRw/PoBgS6jK3Ju4RKuSGIS7lKAtwZKgGwQuwLWMMa2mqmQNYU5rpKgtJWUNnLXxfAG+ssnBY5Ri1m1+CdEvohuqwCIBNVOuW112a9bhtBRZDrKWAqDvyxBhMVT66Av/G4um7+puz4gSUVAGpdg4rrgFp3AEtFv7SNCgAsjOt95yadRtqX8xd7d5aJCyOSzMuD1f9eY4Lswf10uKH+ti2LTWOGREW+FfVKrbgWbItB3Xo/25aaTMMUV4AQj5nboMekfe+Cm/T2TKFGolUiAAALELb4nwoqxl2lt37OtWlURdnL18u859/NeOVM0dSosZ1SaK3v8gl+OmwaMgZlGDffbpLKT5j3neTvyVxwj8Wkddl87P7EnaASwJd4u7jhat4oBLt/ZjgW9XjSrNWFq1UsdC1yBbWRQsGre+ls84eaVDcyy9ZK02V00WxNdfG82i5l0YO7a9Fe+mDrt6IrSfDM9govxbHxySbgYSGCnfTLdNRPpnLIz4wkCtzdPpp7jamQSHQbDY6jrGLMDU3lZRb0vmeJejJzUFIBYQsQ6npPAPeANLu7dNjrgkx9X6UCADeUzqO5dDRridfkfuO64u//HeVK/Af6qCGBnWxLeltwYfMftkIh7tFYTNvrroVs2MRgMi36XAvJqHFM2ZALhsuXHEW9FW0+oWq4TGCFkdfATNwQKoWXkpaVS6AJmybuy1mU/gQ9BEquyawyPFCoZE+krzXWf9kx5VLxPpWllVNZ2m6H/YlHuRj/b0/tr9dYUK3vne7V8Ifds/m3W8/mAYoNFe1oCvNy5RWFipfptWIbPpzIWXSftdslf7FwKjNYqcEsLZJ4WYZ7AUXwXQcsdbi7l54UwyR7iYqa3MtB7MtEwhfx2O+85bMw9ufLvvNeMpJ+YUn8IhS3D4k4FM8z/bw8Vu56Lw2nuhfaxBLhluK2N113+gU7oeILgfLvgvhU3Idi/C2PX8VzMF2u9JxECvMV4u5qWLl4vEDdOnbS7Eynwj1xz+uqLt/rNJNGVlzrdb9PFfNlNv310+hm95tietskn5DKFxbzCXHaPve1UJEfmvmcBi8i7I6uX3vdOn7yGpmux/vGEvdFm6Z07145j3Q8K6aJeZlQ9l0qTcy+8859Fhb+fPY7L11MppNuH6qWK9wv4mVsep/tS9kze35MJWls/XYr8hXRfctuM9xesFx+nrPtpY+psrwgETbhsdt1BPsW74tbR3gu3HLeejVzfjp2f/bp81al9k5et4I2ym8MbqqM0C21CuEeh5OZohuAlgrP4KaT3VBG00Qim88X3CBzFTdYb12pm9Uyxiu9r6vH3fzzyU8Qp8KEJmR/89cRTkFYeZkJMyXiXChOKKcKcTgxT2HfkturOgfxb/EUxek8obfTMsbTOnq/u6qLx06a3a1wT6b93hQ/KLWZPt4uM3Gh4iGv7vdQlFaWLNfofhOlo/X7UJ4vDLcX5mHmvhbM/qXyQ+kCgljVPnWFPvYu6+LxN7r2W67r8X4m8fNioQwBZariWXgdqnNq0jPv3CbPu0vf3TO0WYdK547jdZlfnWQ6mX6mr35WLy5jth9/dsua+0qQhyiPN9XbTeUr0mm8XY+3nVQexp1Xu774mOJthed7yn2fT/GxufXmv0fnPyuzoxKglj5/Vdb0P2qmUnrsyJpZ0EKEezcR7miDLsdjruFuIty7iXAH7kfXrz3uPd1EuOMuzBLP9HB+G593VuvdUHrYnocnsvN9hvdFuqH/Dsf2fYRAlbpriHcCAAAAAAAAAFgu5t0c0Xj3P9yLgH/bXq13Qz0YyoeRyN7DxLtGUlwFwGB0RQUAFoKeAEgi3LuJcEcbdDkecw13E+HeTYQ7cD+6fu1x7+kmwh13oSyemVb/w/AVvyvdMj57sb8cyvnkVeKFxGM5WuuLmYMeAJhB3b2aSgAkEe7dRLijDbocj7mGu4lw7ybCHbgfXb/2uPd0E+GOu9C5eJZXBhRR+I951F1DVAIgiXDvJsIdbdDleMw13E2EezcR7sD96Pq1x72nmwh33AXiGXAzddcQ7wQAAAAAAAAAAKCl1r59+1ZZzfbo0SP3FwAAq0Glbe6vbiHNBgDg9nU1n6GR1wAAYHlV5VFqhwP677//5KeffnKf0BWEezcR7miDLsdjutB2E+HeTYQ7cD+6fu1x7+kmwh13gXgG3EzdNcRwQAAAAAAAAAAAtBSVAAAAAAAAAAAAtBSVAAAAAAAAAAAAtBSVAAAAAAAAAAAAtBSVAAAAAAAAAAAAtBSVAAAAAAAAAAAAtBSVAAAAoBWuP+7I2tqRjN1ntNf47ZoK6+l09MX9gM4w1/vvI7l2n2N1v4euZfS7H6fq7yOl95sfI9nx4mZyni9H3u8l8yxyn6Lt7XysPiuV5y7e98bnGGiH0usMSDD5lbfElpVj0rodGf2wHxdz3Y/lyE8/82m6naVzK+cB94lKAAAAsPp+jOT58NR9QJvpB+r+m0M5n0xkoqfxoez36gs20SLqoXSj6nqv+z2gH8o3ZE+O5crFqavRhfSrHsrL7jf6YfnhnsjoysbNyZUc7+6rdU0fmM0DdG9fDscu/qrp/EDP429vcftU3N65bA03ygulKs5dal2Hn/Zkg4oAdAV5DcxA3zP7b9wHrJYnr1QadyLDB+7zjWSV+n25yPMH3jTekr2H+vclLFxf6HnAMqASAAAArDiVuX6xJzyWd8CPkbxTD9SH41fSc1/pB5TzA5HTz2cURHaAaVXZ23efiup+j11/fCf7MpDj90NZd9+tP/0gx7unsve/1ON42f1Gff9ebffgXE6e5muS4ftjtfZ9OTO9Va7l7LNaUs3z6omZwei9PpdDtcaTf2wMXtw+jeVPXWAZbK8nr8aHIm/eFSoUqs+dXddgdFVc16cTOSurnABag7wGmlJx5fe1GSqj0V46LmzI3uNzU+A/zR94TEF71iCAVva4XVQCAACAlXb98blpMXs+Grhv0FoPhnKiHpT8AlR0h+0FMpDj7/ph2X3pqfs95fLfU5HdHdkOWrmty/Zv6n7y5qzwMF56v/lxJief1Lb/yKunrCDOrsvwr4lMXkfzOKf/Xpr/F7dPl3Kh/jv8Ndrek+2g0kGrPXdfzmRfLfUyLsCglSA6grwGmnGFvp90j0XdG8x9jfn9sMPsHX2JhtMxPdpshUv+XdAzzc4f9xS1Q9pkPevs8jsfR9N163VEw+Ck2PV42070sBu/VXFB9+rL0n2z3mwZXeDvjkkt23vteg/G6wmWUVPU+85U4KvvxsH+uH2Pli0Mn+nOrT9PcL4anIeiKEwSy1efuyzcxsmwNcebfUelycyoBAAAAKtLZU43hmJazG66r9AtWXf7wxfTVtNop95r3XW+vMC57vfZXcil/+Badb/5cSmnsiWbD6oKJEq4wvrBz03uYjPsU42s0kGrO3fXl2oPdzfVNlKFMEDLkddAY66yd+L1WMRC7PfeyeZ3fW7VZHq09VU6tCGXL9x32RB1c6RLp8M9kWyou7/q85O6INrcE7L90dvW++On+ab36rRXnyn47l1Ml1G72V/ri+5/ZyvrVdx5oY9rWtlvl/GH4buSY0kMw6eOu//vy+k8uuegHmLo/aY3rOBAnUOvQF5XADzcky1veEJ9Xk+HGzd415bOI7iKj3y7ovZlut1G5045HfanYfv9WAY6bFW+493P0ZCLTfJZyFEJAAAAVpTKaKqM8WD0gVaoXWRaJ7nu9tHwKkBTmz8P1MPzpUyLwy3TGj9Qfb8xheTqUb4fFEi4h/XKlmrXboiRaSv7Re2TPNiULfXfxWX0eOwqHWZhtm0ewL1CmJIHd6BdyGsAyyC4Bk2PNiUa7m5b92T7ejl7mrR7LM+a5iPzoSn9ivNseLw9+dMVoF//cyKnBy/tPGoZ/T6R8BieuZ4iA9kMjiur7E8N6eeGGVTbeR70cDiU87yXoes5GA8r+MuO+uY0b0gw/p/Ke8TH7fZp/+/5KvjtcIZqX7yKlGw4Q9P7sOG5M/zjfrAtO/pcqf394A25aI4zkV9COSoBAADAShq/7ct+kBlEp7gxVE1B61fdGowuwZjd+tOX6nE1bEmW9S7xNb3fhGPmT98J8K7kxdVmqIBP+oF42mp0cfvUk2cj9cgftOoby9HD+cc1b/TgDrQIeQ1gOWxt3uI1+HgzL7SuZXr+eQX3GVcxYSve7TuAsuH4TIWA+jUcUm9dNh/r/3UvQvNFyAzDp9LdeEg/VyDu9+azPfVmY3oAZoX1rmGN7lmh8yTzssMZxvtie8eY9yE0OndWs96RmBWVAAAAYPWozGrf62KLLqsvaAXK9eRVNoSAG+LmuXywQw1kZrjfFAopUg/rjh2HXxesx++5WNw+rT89cUMA2PWsrZ3JtulC72aYSbMHd6A1yGsAiNief3Uu5fJTlmbaCoHSgnr/+0RPvWn6nU03K6jP6eGAsnWa3k56mJ158wfatVx+dX+WaHbucJuoBAAAACtn/LduG+PGu3QZWDMsjG49q/6OXwIGAOV0oXs2xI1trWbHwLcv521yv1nf1APvNGXfG5CuAMjcfJ8yuiIgW48dp1oXTiRaF1YwQxQBHUNeA0BstvTeU+htMJYzlQ8Y/Ladf296DLh03hp4Y+dHUz78zzzcUIS707H7TUv9Wzb3ucPCUAkAAABWjn2JZTjp1q4ih3J+RxlZ3APTXdl7qVnGdC++5a7iaCXz0r3CUFKu1Z57YG90v3Et4gvj6P44k5OgwF1XAOhWfPbBPlUBsLB90kP/pAoqzRADiVb9FbKxhM2Yvj63rp1fuPbQPuQ1gPYpvl9nRg82K9JDPy+ajb/vhv2J3lVgx8/357fvADh84XoemXxFYjtlaftMbGOAQsWEy7PMp3yMft3z0bw/qPG5w22hEgAAAACrwbyw7FT2XngvItXdmXvq0WF3hpe6AU42/r4/lJQdp//Qe8leE3b8fXnT98bfn7a0y+KmXbeuAPDH1g8tep9Oh39OKxTc9TLzS04fDOXlgah1Pfcq4ewLUyV78SEAAEvDvig4SAPNEF/u73lVpYd5er8pm7vTofJ6vx6G789R+2F7FbkKeTM0T18ugvcKpd7ro/MDfZVDiN8vMCu7f/LmbHpusjyL+zSP1DuNsnNuKjcanTvcJioBAAAAsCLsy8XOH0/HSl97uCeixzHNXm4GzMSOv7+lHrKz4T76X3X3+OmLepsyw+6M1eNvPn7vhuyJWlcWN9VD/jtT+BAOL5JP+UPzYvfpanRhhi4x61LXy9Z4vhbMulX01Ui8fe/L/sH5DYckAADgdvRe6zHu7fBdJt16vylX/vt15pRKD3UB/jQvalvFn34+s+n6k1emF1GeP/h7Wybf9fusXH7g4YnsfC+mzcV8xfz5gZDOT0fnRuVZLl+oPPaB+jmoHChnWvgHPRd1/kWtV+V+8nx67yLo+Vh/7nCb1ia6T1uF//77T3766Sf3CV1BuHcT4Y426HI81hmpmmQdLUS4dxPhDtyPrl973Hu6iXDHXWhXPNPD9vTVf2Xv/knQPQJc4xaGG8M86q4hegIAAAAAAAAAwEL05JVrxe8P51PKVQCcHpxTAYBbQyUAAAAAAAAAACzKk1dm2J8LM5zPjjcOvu9aRr+r37PhLRliD7eISgAAAAAAAAAAWKQHQzmZTGTyfUdOUu8DWtuQk9+uzBAu9ADAbaMSAAAAAAAAAABuQ1YZkJgo/MddoRIAAAAAAAAAAICWWvv27RuveAcAoAUePXrk/gIAALdFPUO7v7qHvAYAAMurKo+yNtF9Tyr8999/8tNPP7lP6ArCvZsId7RBl+OxHleyJllHCxHu3US4A/ej69ce955uItxxF4hnwM3UXUMMBwQAAAAAAAAAQEtRCQAAAAAAAAAAQEtRCQAAAAAAAAAAQEtRCQAAAAAAAAAAQEtRCQAAAAAAAAAAQEtRCQAAAAAAAAAAQEtRCQAAAFbTj5HsrK3JWjz9PpJrNwtazsSBHRn9cJ/RGdcfdyqv9brfQ9cy+t2/jxzJ2P2Sa3q/KcyXWNeXI+/3knmU8Vt/nnQ8N8fprWvnY3zEYznyfp9O8TYbnAMl3Kc1OfrifgDairwGZhXHGeLKrbDp3+3kAXVat1rpm03ri3mAJuZZtn6ZOH+ST29TuYtlEB2Tyau17xmDSgAAALCaflzKqQzk+PtEJhNv+mso624WtJnKrD/cU3EAnaMezDaGFSFf93tAP/RtyJ4cy5W7h1yNLqQfP/g1ud/oB0YVJ2V05X6/kuPdfbWuaYG6eSju7cvheLqO8wM9T7g9XQDR/+rvk8jew3Aeva6NoUz36fuxyHAjfChX+32h/vO3Z6dX0rNzKM3OgdmnN4dynq1jfCj7vXkLHYAVQV4Ds9AVAHE6oO6uGyUVq1hCKgzfvXF/d0JPXqm4evJ0QXc019BhY7g1zS/kk7oevvbN78uXd1jweVhSVAIAAICVdH15IbK7I9sP3BfoDvOA0Zd99xHdYVqi98pDvu732PXHdyoeDeT4/bRAb/3pBznePZW9/02LbOrvN9cyeq+2e3DuPUCuy/D9sVr7vpyZFoXXcvb51Mzz6omZwei9PpdDOZWTf6atz/pvRA5fVO3TWP7UFR0HL2WY7dODobw8EDkd/jktbDIFmIey7W0v1ugcuEKRw7FXefDklZzr7X0+o5UrWou8BmYx/t+enO4ey4fSdABoMZ0/7124SlO/sUFGXQ9/qd9SjRZwJ6gEAAAAK+ny31ORx5t5oRU6wjxg7MtAt7IbH7ov0QW2JbptkasLn2N1v6eY+0ihgG9dtn8biLw5ywvTa+83P87k5JPa9h/RI++DoZxMJq7Q3z38vi4+Fmun/16a/02hY6HgvrhPTdgCzE3ZdJ9TGp2D4DiA7iCvgVn0Xqt7PL1EboWp5M+GlFk7kjP3va84BE2xB50Z7i4asikYAsb1MtU93YKhnOJhnvzlnHAf1dRoKCg7DE2+zNuxXU+0bGHdyd4lZ+G6onWY41ffjfJ16fMTDYNjxEMENhgeSZ8f09PxxDVOCNeh12/Pv9qmqDyFysOfDp8H4VM4F2XhZxoDTecz+1YWprl43WoKhiZKnYd6cZwrLB/tazJM5j6m2VEJAAAAVtBYzt6IDL6+CzJMyzvOJBbmySvTpbjt3XVRZApXJtnDZVHd77O7kEvz8NngfmNa3G/J5oPowblJAYAbsmfwsy2qt4XyZQX32T715NlIF9K/mz4gq4dFM4TBwbZrfed6HsiJPPf3u8k+5bLtFekH17jHAtAu5DVwU2M7dOHusTyjEnVONl0Nh6MT2YuG/dNpUjwEzfnBqew9jAvL96X/QuSDm+dKpaWnww1b6KrzmN91zw03jF5WoaMLY1U4bvlD65lCbLecYhsiePuYDQVVdb8whbx92T84z9d7Ln2TtvrMur0hAvPhBqP0/HS4JxfxUFRxmv9pT32bbS+VZ9KF4eEQgdnwf1UVAaYXTN7T0a3jcbadK9n5vGGHaswaHTx5Znoc5r0gE+ciNRSiCb/3m/m+6UYfpsLm4aW8dN/FYWP3p++dGzXpcH7Tv1HBug6XqmEZTQF/MARk2fBg8xzTfKgEAAAAq8cVmp0+fukyVXo6l0OVmZutgAtAl23+rB71P12KbYM/ZQriMw3uN7b1vh7bf0MuX2TzlD3s+a5l9EK3OjyUlzUVW+ubW+4va/3piXrg3JGTh65gMiugyHsaqOP6pP/fyQs7UvvU6Bz4XGs18zAfDW0EtAp5DcwtqxDWQxeGw61hRl/+lD2VlsXD0enC+yk7RN5g9CwYgqb3R2oopnj4u5cqBRa5uCy/orNhnoKKHFOIrVL+v3Vqei2XX9V/eSW8Vt37TzPrVVs/9+axQwR6XAV/WOGu1v1CzfXpRM78AnKVJheGJPy0J3/Gxx/3WvSkhgjMhv/b75XlZ3SF6XS947c63vvH5fZXy3tW2R6HWS/I1LnIhyZ84d9vw33r/WrXG8aP7SBM7TFF+axsCMV5hzTMwiXv+aCodX7QlUpmnVmcvPLySS5M1N68CyofZj+meVEJAAAAVo8bmiLMWPfk1VhljwqZXQBIsw//YWu6rIV7bob7TbOHvanx241i4UYjroDJbyU2OVe7pb7Lj8W+5C4cmqK4T43Ogc/1xjEVCuYFf1WVHMAKI6+Bual7rS4A1vFnvCV7DxczlEcXpYfIU2c4qBgPX+qaD53jhvYJ6V577s+GgmGe8mFbbPptZUPo6TQxbrleJlVxoG3K5q77U3P3IZu38HobJt5/lPUozD3Ylp28oiJTdfyuB2HiPSi2YLqkd+CXM9nPl3E9qKIKGXmwqfIeiX007DLFc+HOa9BQYfbwM40msncUmB4H9hyW5nOaMD1AB4V9MdvSccVVIm9tehUPmguTrPLDmv2Y5kUlAAAAaA+XwbxpKwkAXaELDs7l8JNuHW8fCp/LB9PtulbiftPsYc+yQwfoCoBmY+3bghAn1TJSH4vu3l5XOKn2WxedTPdp3nNQX8kBtBJ5DczCtaIOXtqOxkp7pbnrMGOGXnFpWPZ+oGxonyZS6XTOKzjO30ulK8K9wnrbO09vTw9B5OatrBDIeuvF1mXzsfvTySs1TMWDG3IokUYX8iDz8vID+ZSodMiY/EnWwl9XCKj/yvbF/74QtqYSJdyu6XV4Y3a8f7NOXTHkhhxq+v6olCBPlmIqCZYPlQAAAAAAOsy2ILSt221LQvNwl2gJVyYeqqdaNr5xugKgbHgey28tVmyBlhXwz144efNzAADAopk0McUvZP0xkudu6BWbji3y/UBu2L7d6Rj5pe+lynoPmUkP66MrBMoqAqIW/znXQyDz5SjPL9j1lvccXFjFpDcufzg1Pa/F/Mn1PyfqbPg9Omzr/8Nfp0czDb94mrW3ZCgfnihbX9C765ZElVTLgkoAAACwelxX3MLLkVzXzJ1fFtQSBkCr2ZaD8XA2rjt83qqtwf3GjdUadrlXfpzJiW6xnz/k6goA3ZLPtlJM9QCwFQpxl3u3T0FX+dNit3y/+7lruVgYgsLNk+1T83OQKMhwhTALa30ILBPyGpiJG6ql8CJYV6hb+sJ3VLFpYjyuvzqrfkvskrTIFjzflGuxn49l77j0vVzPDh2WSqsN1+L/zVmU/oY9BOxxFgvVx38XW+YXejMU8iB1smGN4n1S+5HMK3i+XqqYrpjC7/iY7fj4/jVgxunP37PQk+2S8flNL4gbvYOl7PpzQxDNaf2XncRxKll+SW3NxNySfGF6WKQ7MKnx7ds39xe6hHDvJsIdbdDleNwgWW+Rq8nxrqhjPpycu28m348nKts6kYP8m07oVrhHxofq+AeT4+/uc4d0OtyV8wN1re8eqztBWt3vU+cT9Yg+GYymc5pl/XtLw/vN1WhgwuVw7L7IlvP2w667Ls4Wt2fX7S+X2Cd3LNXbK86TfdfoHPjLZeeg0Xluj65fe+Q1yGuggsmX+OlAdj8Nv0NaWTwrpEnZdZilb6nrMp9neu5tWuqnbZpLF/Nl4zQxld5m32XLJdJIpZiWRhL7ncWX/DsXp/w0Ovtumr67Y1DTNJ4V0/uq45+uv7hctp/xPPlnsz/ZeuNzEZ8rtXTqvKTCMLqekvufuObi/bPbC/Ne+XnO9zN1TOEyseJ63blzx1CaL/SOYd5jKqOXq1J7J6dQsJsI924i3NEGVAJ0S56Bc1NdxqiNuhjuuQYZ9LbqdLgr5tqPHrZ9db+H3ENbNpUs1+h+4x7c8slfl1cgkZyi7YbbS8fzeJ+Ch2cnewitmmeh56Dl9HF3WRePn3hPvJ9J4V4fFfChVFU8K6SJoygPmDzvqULZODzCebTptrJ5vYJsN+kCWjtf+TzxtsL5M1H6q/bDzOen1am8RVAwb9cxGB0X1uWrOv7wvpY+3ql4Gft5Oo9/TDaMgvCL9mvKX05PYd7nJgXmwfbdb3Z92TaiZeJnjOB8T8V5rPj3Qtg1CZOGx5Sil6uypv9RM5X677//5KeffnKf0BWEezcR7miDLsdj3WW9JllHCxHu3US4A/ej69ce955uItxxF4hnmh028OS3q/J3DywhPVzQxucdufprGA6bVEEP9dN/o8fqv9mY/5iqu4Z4JwAAAAAAAAAA3BEz3n00zv71x+fmvUGr9s6R9acf5Fj2ZKPh+P22AkC/H4kKgLtEJQAAAAAAAAAA3JHe6ys53t2X/pquDLDTxnBLzicnMoxeBLz81mX410TOH+/Jhj6WwguyHffCddsDYBWPc7VRCQAAAAAAAAAAd8YWnOvhW6bTareM7722x3Eu/bxiI5jUwZ234DhXFZUAAAAAAAAAAIAbyyoDihOF//eJSgAAAAAAAAAAAFpq7du3b7ziHQCAFnj06JH7CwAA3Bb1DO3+6h7yGgAALK+qPMraRPfHqPDff//JTz/95D6hKwj3biLc0QZdjsdcw91EuHcT4Q7cj65fe9x7uolwx10gngE3U3cNMRwQAAAAAAAAAAAtRSUAAAAAAAAAAAAtRSUAAAAAAAAAAAAtRSUAAAAAAAAAAAAtRSUAAAAAAAAAAAAtRSUAAAAAAAAAAAAtRSUAAAAAAAAAAAAtRSUAAAAAAAAAAACtJPL/lm5Ox4QC/UkAAAAASUVORK5CYII=;" parent="1" vertex="1">
          <mxGeometry x="130" y="570" width="1228.06" height="159" as="geometry" />
        </mxCell>
        <mxCell id="S-Vp6ZYsOPqpQC-XQq48-1" value="" style="edgeStyle=entityRelationEdgeStyle;fontSize=12;html=1;endArrow=ERoneToMany;rounded=0;entryX=0;entryY=0.5;entryDx=0;entryDy=0;exitX=1;exitY=0.5;exitDx=0;exitDy=0;" parent="1" source="o68t6UrzeyRqWO2HSwae-74" target="o68t6UrzeyRqWO2HSwae-90" edge="1">
          <mxGeometry width="100" height="100" relative="1" as="geometry">
            <mxPoint x="1050" y="380" as="sourcePoint" />
            <mxPoint x="1150" y="280" as="targetPoint" />
          </mxGeometry>
        </mxCell>
        <mxCell id="S-Vp6ZYsOPqpQC-XQq48-2" value="" style="edgeStyle=entityRelationEdgeStyle;fontSize=12;html=1;endArrow=ERoneToMany;rounded=0;exitX=1;exitY=0.5;exitDx=0;exitDy=0;entryX=0;entryY=0.5;entryDx=0;entryDy=0;" parent="1" source="o68t6UrzeyRqWO2HSwae-74" target="o68t6UrzeyRqWO2HSwae-103" edge="1">
          <mxGeometry width="100" height="100" relative="1" as="geometry">
            <mxPoint x="1050" y="380" as="sourcePoint" />
            <mxPoint x="1150" y="280" as="targetPoint" />
          </mxGeometry>
        </mxCell>
      </root>
    </mxGraphModel>
  </diagram>
</mxfile>
